<?xml version="1.0" encoding="utf-8"?>
<!-- Generator: Adobe Illustrator 25.4.1, SVG Export Plug-In . SVG Version: 6.00 Build 0)  -->
<svg version="1.1" id="レイヤー_1" xmlns="http://www.w3.org/2000/svg" xmlns:xlink="http://www.w3.org/1999/xlink" x="0px"
	 y="0px" viewBox="0 0 128 128" style="enable-background:new 0 0 128 128;" xml:space="preserve">
<style type="text/css">
	.st0{fill:#DD0000;}
	.st1{fill:#FFFFFF;}
</style>
<path class="st0" d="M63.9,4c33.1,0,60,26.9,60,60s-26.9,60-60,60s-60-26.9-60-60S30.8,4,63.9,4 M63.9,0c-35.3,0-64,28.7-64,64
	s28.7,64,64,64s64-28.7,64-64S99.3,0,63.9,0z"/>
<path class="st1" d="M63.9,4c5.2,0,10.5,0.7,15.5,2l1-3.9c-10.9-2.9-22.3-2.9-33.1,0l1,3.9C53.4,4.7,58.7,4,63.9,4z"/>
</svg>