<?xml version="1.0" encoding="UTF-8"?>
<svg xmlns="http://www.w3.org/2000/svg">
    <symbol id="icon-download" viewBox="0 0 24 24">
      <path d="M11.29,18.29l-3.95-3.95c-.39-.39-.39-1.02,0-1.41.39-.39,1.02-.39,1.41,0l2.24,2.24V3c0-.55.45-1,1-1s1,.45,1,1v12.17l2.24-2.24c.39-.39,1.02-.39,1.41,0,.39.39.39,1.02,0,1.41l-3.95,3.95c-.39.39-1.02.39-1.41,0Z"/>
      <path d="M1,21c0,.55.45,1,1,1h20c.55,0,1-.45,1-1v-3c0-.55-.45-1-1-1s-1,.45-1,1v2H3v-2c0-.55-.45-1-1-1s-1,.45-1,1v3Z"/>
    </symbol>
    <symbol id="icon-scrolltotop" viewBox="0 0 24 24">
      <path d="M17.66,15.18c-.39.39-1.02.39-1.41,0,0,0,0,0,0,0l-4.24-4.24-4.24,4.24c-.39.39-1.02.39-1.41,0-.39-.39-.39-1.02,0-1.41l4.95-4.95c.39-.39,1.02-.39,1.41,0l4.95,4.95c.39.39.39,1.02,0,1.41Z"/>
    </symbol>
    <!-- japan -->
    <symbol id="icon-country-japan" fill="currentColor" viewBox="0 0 128 128">
      <path d="M114.5,73.8c-3.8-4.6-9.6-4.6-15.6,0l-16.4,11.9c-1.9-1.7-4.9-2.6-8.7-2.6h-9.1c-12.7-9.1-26.5-6.6-37.3,6.7l-3.5-3.5c-.3-.3-.8-.6-1.2-.5-.5,0-.9.2-1.2.5l-9.1,9.3c-.7.7-.7,1.8,0,2.5l26.4,26.4c.3.3.8.5,1.2.5h0c.5,0,.9-.2,1.2-.5l9.1-9.3c.7-.7.7-1.8,0-2.5l-3.7-3.7h32c3.4,0,5.6-.8,7.3-2.5l27.6-25.9c2.3-2,2.7-4.7.9-6.8ZM40,120.8l-24-23.9,6.7-6.8,17.9,17.8c.2.5.6.9,1,1l5.1,5-6.7,6.8ZM111.3,78l-27.7,26c-.8.8-1.9,1.5-4.9,1.5h-35.5l-13.2-13.2c9.8-12.3,21.8-14.5,33.2-6.1.3.2.7.3,1,.3h9.7c6.7,0,7.7,3,7.7,4.9,0,.7-.5,1.2-1.1,1.3h-21.8c-1,0-1.8.8-1.8,1.8s.8,1.8,1.8,1.8h21.9c2.6-.1,4.5-2.2,4.5-4.8,0-1.1-.2-2-.5-2.9l16.5-12c2.6-1.9,7.4-4.6,10.8-.5.3.4.7.9-.5,2Z"/>
      <path fill="currentColor" d="M42.6,72.6c.3.3.7.4,1.1.4s1-.2,1.4-.7l4-5c.3-.3.4-.8.4-1.2l-.3-4c0-.8-.7-1.5-1.5-1.6-.6,0-3.8-.5-4.9-.5s-1.2.3-1.5.8l-3.5,5.5c-.5.8-.3,1.9.5,2.4.8.5,1.9.3,2.4-.5l2.9-4.6c.6,0,1.4.1,2.1.2l.2,1.9-3.6,4.5c-.6.8-.5,1.9.3,2.5Z"/>
      <path fill="currentColor" d="M84.3,35.4l5-11c.3-.6.2-1.3-.2-1.8-.4-.5-1-.8-1.7-.7l-5.2.9-4.4-3.5c-.4-.3-1-.5-1.5-.3-.5.1-1,.5-1.2,1l-4.5,10.5c-.2.5-.2,1.1,0,1.5l4.6,8.1-8.6,9.8-8.3,4.5-7.5,2.6c-.7.3-1.2,1-1.2,1.7,0,.8.6,1.4,1.3,1.6.4,0,9.5,2.4,12.2,2.7,1.5.2,3.7,1.8,4.7,2.8.3.3.8.5,1.2.5s.5,0,.7-.1c.7-.3,1.1-.9,1.1-1.6,0-1.2.1-2.5.2-3.3,1.4,0,3.5-.3,3.8-.3.6,0,1.1-.4,1.4-1l3.7-7.3c.1-.3.2-.6.2-.9l-1-11.6c0,0,0-.2,0-.3,0,0,0,0,0-.1l-1.3-4.4,4.6.9c.8.2,1.6-.3,1.9-1ZM73.5,57.7c-1.4.1-3,.2-3.5.2-1.4,0-2.2,1-2.5,3.3-1.1-.7-2.5-1.4-3.9-1.6-1.1-.1-3.6-.7-6-1.2l2-.7c0,0,.2,0,.3-.1l8.7-4.7c.2,0,.3-.2.5-.4l7-7.9.6,7.1-3,6ZM75.5,31.5c-.1,0-.2,0-.3,0-.3,0-.5,0-.8.2l-.3-.5,3.3-7.6,3.2,2.6c.4.3.9.4,1.4.4l2.8-.5-3.1,6.7-6.1-1.2Z"/>
      <path fill="currentColor" d="M30,59.8c1.5,6.1,4.4,11.8,8.5,16.8.3.4.8.6,1.3.6s.8-.1,1.1-.4c.7-.6.8-1.7.2-2.5-3.6-4.3-6.1-9.2-7.6-14.5l3.2-2.8c.2-.1.3-.3.4-.5l2.5-4.5c.1-.3.2-.6.2-.9v-7.5c0-.2,0-.4,0-.6l-3.5-10c0,0,0-.1,0-.2,1.8-3.7,4.2-7,7.1-10l8.6,3.8c.2.1.5.2.7.2s.3,0,.4,0l8.5-2c.2,0,.5-.2.7-.3l8.5-6.5c.2-.1.3-.3.4-.5l3.4-5.8c9.6,1,18.8,5.6,25.4,13.5,9.4,11.2,11.5,27.1,5.4,40.4-.4.9,0,1.9.9,2.3.9.4,1.9,0,2.3-.9,6.6-14.5,4.3-31.8-5.9-44.1-14.7-17.7-41.1-20.1-58.8-5.3-8.6,7.1-13.8,17.2-14.8,28.3-.4,4.5,0,9.1.9,13.4,0,.1,0,.2,0,.4ZM70.6,11.6l-2.3,3.9-7.9,6.1-7.6,1.8-6.7-3c7.2-5.9,15.8-8.8,24.5-8.8ZM32.5,46.4c.3-2.9.9-5.8,1.8-8.5l2.2,6.2v6.7l-2.1,3.8-1.5,1.3c-.5-3.1-.6-6.3-.3-9.5Z"/>
      <path fill="currentColor" d="M53.7,64.1c-.8,0-1.6.6-1.7,1.4l-1,5.7c-.1.6,0,1.2.5,1.6s1,.6,1.6.5l4.2-.9,3.8,1.5c.2,0,.4.1.6.1s.6,0,.9-.2c.5-.3.8-.7.9-1.2l1-6c0-.5,0-1-.4-1.4-.3-.4-.8-.6-1.3-.6-.3,0-7.4-.3-9.1-.3ZM60.3,69.8l-2.3-.9c-.2,0-.4-.1-.6-.1s-.2,0-.4,0l-2.1.5.3-1.6c1.6,0,3.9.1,5.5.2l-.3,1.9Z"/>
    </symbol>
    <!-- Global -->
    <symbol id="icon-country-global" fill="currentColor" viewBox="0 0 128 128">
      <path d="M39.9,77.2c.4,0,.8-.1,1.1-.4.7-.6.8-1.7.2-2.5-6.5-7.8-9.6-17.8-8.7-27.9.1-1.4.3-2.8.6-4.1l3.4,3.9,3.3,4.1,1.4,5.5-.2,4.8c0,.5.2,1,.5,1.3l3.7,3.7,2.9,8.7c.3.9,1.3,1.4,2.2,1.1.9-.3,1.4-1.3,1.1-2.2l-3-9.1c0-.3-.2-.5-.4-.7l-3.4-3.4.2-4.3c0-.2,0-.3,0-.5l-1.5-6.2s0,0,0,0l1.2.9c.5.4,1.1.5,1.7.3l3.5-1.3,6.7,7.2,1.2,3.2c.2.5.6.9,1.1,1l6.5,2.2-2.2,4.7-2.6,4.3c-.1.2-.2.5-.2.8l-.2,4c0,1,.7,1.8,1.7,1.8,0,0,0,0,0,0,.9,0,1.7-.7,1.7-1.7l.2-3.5,2.4-4s0-.1,0-.2l3.1-6.6c.2-.4.2-1,0-1.4-.2-.5-.6-.8-1-1l-7.6-2.6-1-2.7c0-.2-.2-.4-.4-.6l-7.7-8.4c-.5-.5-1.2-.7-1.9-.4l-3.7,1.4-2.2-1.8,1.2-8.1,5.6.5c.8,0,1.6-.4,1.8-1.2l2.6-8,6-2.3c.6-.2,1-.7,1.1-1.3.1-.6,0-1.2-.5-1.6l-7.4-7.4c1.5-.7,2.9-1.3,4.5-1.8l6.1,6.6c.3.3.7.5,1.2.6l3.5.2s0,0,.1,0c.5,0,.9-.2,1.2-.5l7.9-8c1.8.4,3.6.9,5.3,1.5l-2.8,2.1c-.5.4-.8,1.1-.6,1.8l1,4.2-3.4,6.7c-.3.6-.3,1.2.1,1.8l2.6,4c.3.5.9.8,1.5.8s.2,0,.3,0l6.1-1.1c.5,0,.9-.3,1.1-.7l2.8-4.1,11.9,2.7c.8,1.5,1.5,3.1,2.1,4.7l-9.4,1.7-9.1-2.5c-.6-.2-1.2,0-1.6.4l-6.1,5.3c-.5.4-.7,1-.6,1.6l1.1,6.6c0,.6.5,1,1,1.3l4.2,2c.3.1.6.2,1,.2l4-.5,6.7,9-2.1,6.1c0,.1,0,.3,0,.4l-.2,2.2c0,1,.7,1.8,1.6,1.9,0,0,0,0,.1,0,.9,0,1.7-.7,1.7-1.6v-2c.1,0,2.5-6.8,2.5-6.8.2-.5,0-1.2-.3-1.6l-7.9-10.5c-.4-.5-1-.8-1.6-.7l-4.5.6-2.9-1.4-.8-4.7,4.7-4,8.5,2.4c.3,0,.5,0,.8,0l10.3-1.8c2.2,8.4,1.6,17.6-2.1,25.8-.4.9,0,1.9.9,2.3.9.4,1.9,0,2.3-.9,6.6-14.5,4.3-31.8-5.9-44.1-14.7-17.7-41.1-20.1-58.8-5.3-8.6,7.1-13.8,17.2-14.8,28.3-1,11.1,2.4,21.9,9.5,30.5.3.4.8.6,1.3.6ZM100,25.3c.7.8,1.3,1.6,1.8,2.4l-9.8-2.2c-.7-.2-1.4.1-1.8.7l-3.1,4.5-4.3.8-1.4-2.1,3.3-6.3c.2-.4.2-.8.2-1.2l-.8-3.7,3.5-2.6c4.7,2.3,9,5.6,12.6,9.8ZM74.1,11.7l-5.5,5.6h-2c0-.1-4.4-4.8-4.4-4.8,3.9-.9,8-1.1,11.9-.8ZM46.1,20.4c1.5-1.2,3-2.3,4.6-3.3l6.2,6.2-4.3,1.7c-.5.2-.9.6-1,1.1l-2.4,7.5-5.9-.5c-.9,0-1.8.6-1.9,1.5l-1.5,10.3-5.8-6.7c2.2-6.9,6.3-13,11.9-17.7Z"/>
      <path fill="currentColor" d="M114.5,73.8c-3.8-4.6-9.6-4.6-15.6,0l-16.4,11.9c-1.9-1.7-4.9-2.6-8.7-2.6h-9.1c-12.7-9.1-26.5-6.6-37.3,6.7l-3.5-3.5c-.3-.3-.8-.5-1.2-.5h0c-.5,0-.9.2-1.2.5l-9.1,9.3c-.7.7-.7,1.8,0,2.5l26.4,26.4c.3.3.8.5,1.2.5h0c.5,0,.9-.2,1.2-.5l9.1-9.3c.7-.7.7-1.8,0-2.5l-3.7-3.7h32c3.4,0,5.6-.8,7.3-2.5l27.6-25.9c2.3-2,2.7-4.7.9-6.8ZM40,120.8l-24-23.9,6.7-6.8,17.9,17.8c.2.5.6.9,1,1l5.1,5-6.7,6.8ZM111.3,78l-27.7,26c-.8.8-1.9,1.5-4.9,1.5h-35.5l-13.2-13.2c9.8-12.3,21.8-14.5,33.2-6.1.3.2.7.3,1,.3h9.7c6.7,0,7.7,3,7.7,4.9,0,.7-.5,1.2-1.1,1.3h-21.8c-1,0-1.8.8-1.8,1.8s.8,1.8,1.8,1.8h21.9c2.6-.1,4.5-2.2,4.5-4.8,0-1.1-.2-2-.5-2.9l16.5-12c2.6-1.9,7.4-4.6,10.8-.5.3.4.7.9-.5,2Z"/>
    </symbol>
    <!-- Bullet Philosophy-->
    <symbol id="icon-bullet-philosophy" fill="none" stroke="currentColor" stroke-width="2" viewBox="0 0 24 24">
      <path d="M7.93,10.48l4.07,4.07,8.24-8.25c1.12,1.61,1.76,3.58,1.76,5.69,0,2.76-1.12,5.26-2.93,7.07s-4.31,2.93-7.07,2.93-5.26-1.12-7.07-2.93-2.93-4.31-2.93-7.07,1.12-5.26,2.93-7.07,4.31-2.93,7.07-2.93c1.94,0,3.76.55,5.29,1.51" />
    </symbol>
    
    <!-- icon quality 01-->
    <symbol id="icon-quality-01" stroke-width="2.4" fill="none" stroke-linecap="round" stroke-linejoin="round" stroke="currentColor" viewBox="0 0 80 80">
      <circle stroke="currentColor" fill="none" cx="40" cy="30.82" r="26.3"/>
      <circle stroke="currentColor" fill="none" cx="40" cy="30.82" r="19.47"/>
      <polygon stroke="currentColor" fill="none" points="39.96 35.71 47.63 41.28 44.7 32.26 52.38 26.69 42.89 26.69 39.96 17.66 37.03 26.69 27.54 26.69 35.22 32.26 32.28 41.28 39.96 35.71"/>
      <polyline stroke="currentColor" fill="none" points="33.52 60.62 24.85 75.64 22.5 66.86 13.72 69.22 21.76 55.26"/>
      <polyline stroke="currentColor" fill="none" points="46.4 60.62 55.07 75.64 57.42 66.86 66.2 69.22 58.15 55.26"/>
    </symbol>
    <!-- icon quality 02-->
    <symbol id="icon-quality-02" stroke-width="2.4" fill="none" stroke-linecap="round" stroke-linejoin="round" stroke="currentColor" viewBox="0 0 80 80">
      <path class="cls-1" d="M36.43,8.21c0-1.97-1.59-3.56-3.56-3.56s-3.56,1.59-3.56,3.56h-7.06v7.09h20.4v-7.09h-6.21Z"/>
      <path class="cls-1" d="M31.57,67.16H14.79s-1.52,0-1.52,0c-2.2,0-4-1.8-4-4V13.84c0-2.2,1.8-4,4-4h8.03"/>
      <path class="cls-1" d="M56.46,25.48v-11.63c0-2.2-1.8-4-4-4h-9.26"/>
      <path class="cls-1" d="M50.76,25.48v-9.63c0-1.1-.9-2-2-2h-5.51"/>
      <path class="cls-1" d="M31.57,61.46h-14.6c-1.1,0-2-.9-2-2V15.84c0-1.1.9-2,2-2h5.04"/>
      <polyline class="cls-1" points="20.33 26.41 22.37 28.45 27.52 23.3"/>
      <line class="cls-1" x1="31.22" y1="26.66" x2="44.61" y2="26.66"/>
      <polyline class="cls-1" points="20.33 37.31 22.37 39.34 27.52 34.19"/>
      <line class="cls-1" x1="31.22" y1="37.55" x2="32.7" y2="37.55"/>
      <polyline class="cls-1" points="20.33 48.2 22.37 50.23 27.52 45.08"/>
      <path class="cls-1" d="M62.9,52.02c0,5.37-4.35,9.73-9.73,9.73s-9.73-4.35-9.73-9.73,4.35-9.73,9.73-9.73,9.73,4.35,9.73,9.73ZM75.42,54.24c.07-.73.11-1.47.11-2.22s-.04-1.49-.11-2.22l-4.38-1.96c-.46-1.97-1.24-3.82-2.28-5.49l1.71-4.49c-.94-1.15-2-2.21-3.15-3.15l-4.49,1.71c-1.67-1.04-3.51-1.82-5.49-2.28l-1.96-4.38c-.73-.07-1.47-.11-2.22-.11s-1.49.04-2.22.11l-1.96,4.38c-1.97.46-3.82,1.24-5.49,2.28l-4.49-1.71c-1.15.94-2.21,2-3.15,3.15l1.71,4.49c-1.04,1.67-1.82,3.51-2.28,5.49l-4.38,1.96c-.07.73-.11,1.47-.11,2.22s.04,1.49.11,2.22l4.38,1.96c.46,1.97,1.24,3.82,2.28,5.49l-1.71,4.49c.94,1.15,2,2.21,3.15,3.15l4.49-1.71c1.67,1.04,3.51,1.82,5.49,2.28l1.96,4.38c.73.07,1.47.11,2.22.11s1.49-.04,2.22-.11l1.96-4.38c1.97-.46,3.82-1.24,5.49-2.28l4.49,1.71c1.15-.94,2.21-2,3.15-3.15l-1.71-4.49c1.04-1.67,1.82-3.51,2.28-5.49l4.38-1.96Z"/>
    </symbol>
    <!-- icon quality 03-->
    <symbol id="icon-quality-03" stroke-width="2.4" fill="none" stroke-linecap="round" stroke-linejoin="round" stroke="currentColor" viewBox="0 0 80 80">
      <path class="cls-1" d="M14.79,67.16h-1.52c-2.2,0-4-1.8-4-4V13.84c0-2.2,1.8-4,4-4h34.16l9,9v2.51"/>
      <line class="cls-1" x1="17.41" y1="23.14" x2="36.92" y2="23.14"/>
      <line class="cls-1" x1="17.41" y1="31.34" x2="28.42" y2="31.34"/>
      <line class="cls-1" x1="17.41" y1="39.54" x2="19.91" y2="39.54"/>
      <path class="cls-1" d="M23.1,64.26v-2.49c0-1.37,1.12-2.49,2.5-2.49h14.51c1.38,0,2.5,1.12,2.5,2.49v2.49h-19.51Z"/>
      <path class="cls-1" d="M19.04,70.16v-4.65c0-.69.56-1.25,1.25-1.25h25.11c.69,0,1.25.56,1.25,1.25v4.65h-27.61Z"/>
      <g>
        <rect class="cls-1" x="30.39" y="26.95" width="22.92" height="15.04" transform="translate(-12.12 39.69) rotate(-45)"/>
        <rect class="cls-1" x="30.12" y="34.86" width="4.25" height="18.44" transform="translate(-21.72 35.71) rotate(-45)"/>
        <rect class="cls-1" x="49.33" y="15.65" width="4.25" height="18.44" transform="translate(-2.51 43.67) rotate(-45)"/>
        <path class="cls-1" d="M64.28,62.17c1.46,1.57,3.99,1.58,5.45,0,1.4-1.5,1.32-3.86-.18-5.27l-20.43-19.07-3.9,3.9c7.1,7.61,19.07,20.43,19.07,20.43Z"/>
      </g>
      <path class="cls-1" d="M50.91,67.16h1.52c2.2,0,4-1.8,4-4v-3.39"/>
    </symbol>
    <!-- icon quality 04-->
    <symbol id="icon-quality-04" stroke-width="2.4" fill="none" stroke-linecap="round" stroke-linejoin="round" stroke="currentColor" viewBox="0 0 80 80">
      <polyline points="56.01 21.69 58.05 23.73 63.2 18.57"/>
      <circle cx="18.62" cy="31.8" r="4.19"/>
      <path d="M20,37.32c-.06-.04-.12-.06-.18-.1-.08-.05-.16-.1-.25-.13-.08-.03-.16-.05-.24-.08-.07-.02-.15-.05-.22-.07-.32-.06-.66-.06-.98,0-.08.02-.15.04-.22.07-.08.02-.17.04-.24.08-.09.04-.17.09-.25.13-.06.03-.12.06-.18.1-.14.09-.27.2-.38.31l-7.13,7.13c-.47.47-.73,1.1-.73,1.77s.26,1.3.73,1.77l6.32,6.31s.05.04.08.07v12.86c0,1.38,1.12,2.5,2.5,2.5s2.5-1.12,2.5-2.5l1.93-16.84-.85-6.12"/>
      <path d="M26.45,48.99h3.08c1.12,0,2.03-.91,2.03-2.02s-.91-2.03-2.03-2.03h-2.78l-6.24-7.18"/>
      <path d="M15.03,46.52l2.85,2.85c.98.98.98,2.56,0,3.54-.49.49-1.13.73-1.77.73s-1.28-.24-1.77-.73l-4.61-4.61"/>
      <path d="M46.12,69.64v-31.96c0-.55-.45-1-1-1h-6.54c-.55,0-1,.45-1,1v9.31c0,.55-.38,1.25-.84,1.54l-8.02,5.21c-.46.3-.84.99-.84,1.54v13.36c0,.55-.45,1-1,1h-3.16"/>
      <rect x="51.22" y="53.68" width="15.96" height="15.96" rx="2" ry="2"/>
      <rect x="51.22" y="33.47" width="15.96" height="15.96" rx="2" ry="2"/>
      <rect x="51.22" y="13.25" width="15.96" height="15.96" rx="2" ry="2"/>
    </symbol>
    <!-- icon env -->
    <symbol id="icon-env-01" stroke-width="2.4" fill="none" stroke-linecap="round" stroke-linejoin="round" stroke="currentColor" viewBox="0 0 80 80">
      <g>
      <path class="cls-1" d="M58.63,34.78c-3.66,7.94-9.43,13.16-15.47,17.33"/>
      <line class="cls-1" x1="53.61" y1="42.73" x2="59.12" y2="41.28"/>
      <line class="cls-1" x1="47.29" y1="49.03" x2="46.28" y2="38.17"/>
      <line class="cls-1" x1="47.31" y1="49.01" x2="56.62" y2="48.44"/>
      <line class="cls-1" x1="53.65" y1="42.76" x2="52.22" y2="36.86"/>
      </g>
      <path class="cls-1" d="M60.95,50.51c1.5-.54,3.14-.86,4.46-.6.34.06.66.18.96.34,0,0,3.62,2,2.16,3.12,0,0-9.34,7.54-23.84,15.32-.04.02-.1.05-.19.09-1.91.92-4.03,1.32-6.15,1.21l-12.4-.62c-.58-.04-1.14.18-1.58.56l-2.56,2.18"/>
      <path class="cls-1" d="M43.61,57.75c1-.18,2.26-.56,3.62-1.06,2.26-.8,4.78-1.92,6.82-2.9"/>
      <path class="cls-1" d="M10.66,59.79l4.93-4.18c1.45-1.27,3.18-2.19,5.02-2.65,1.22-.3,2.5-.39,3.77-.24.26.03.51.07.73.12.99.21,2.07.39,3.19.73,2.26.68,4.56,1.22,6.89,1.6,1.82.3,3.66.5,5.51.59h0c.93.05,1.75.47,2.33,1.11.58.64.91,1.5.87,2.43h0c-.09,1.86-1.68,3.29-3.54,3.19l-10.99-.56"/>
      <path class="cls-1" d="M40.71,21.78c-7.42,0-14.17-.97-19.26-2.57"/>
      <path class="cls-1" d="M59.96,19.21c-5.08,1.6-11.84,2.57-19.26,2.57"/>
      <line class="cls-1" x1="40.71" y1="31.94" x2="16.89" y2="31.94"/>
      <path class="cls-1" d="M40.71,8.12c4.02,0,7.34,9.16,7.81,20.98"/>
      <path class="cls-1" d="M32.85,31.94c0-13.16,3.52-23.82,7.86-23.82"/>
      <path class="cls-1" d="M40.71,55.76c-4.34,0-7.86-10.66-7.86-23.82"/>
      <path class="cls-1" d="M21.45,44.69c4.31-1.35,9.82-2.26,15.92-2.5"/>
      <path class="cls-1" d="M16.89,31.94c0-13.16,10.66-23.82,23.82-23.82"/>
      <path class="cls-1" d="M62.75,22.9c-3.56-8.67-12.09-14.78-22.04-14.78"/>
      <path class="cls-1" d="M40.71,55.76c-13.16,0-23.82-10.66-23.82-23.82"/>
      <path class="cls-1" d="M60.95,50.51c-1.9,2.84-4.42,3.72-6.9,3.28-2.54-.44-5.06-2.28-6.8-4.82-6.78-1.14-11.32-12.16.7-16.12,3.98-1.32,9.22-2.94,15.38-6.54,1.54,12.78.18,20.32-2.38,24.2Z"/>
    </symbol>
    <!-- icon-env-02 -->
    <symbol id="icon-env-02" stroke-width="2.4" fill="none" stroke-linecap="round" stroke-linejoin="round" stroke="currentColor" viewBox="0 0 80 80">
    <g>
      <g>
        <path class="cls-1" d="M19.67,29.99s2.43-.16,3.57,1.29c.55.71.45,1.78,1.1,3.02.57,1.1,1.59,1.75,2.3,3.42.22.52.13.91-.73,2.29-.35.57.59,2.18-1.47,3.03-1.59.65-6.04,3.33-6.04,3.33"/>
        <path class="cls-1" d="M63.3,40.6s-2.82,2.74-3.9,2.22c-1.25-.6-1.4-2.08-2.32-2.69-.59-.39-2.82,0-2.82,0h0l-3.16.8s-2.94-4.62-4.9-5.19c-1.61-.47-6.39,1.04-6.39,1.04l-1.77-2.99.78-3.15s.21-2.57,3.88-3.24l1.1-1.24,2.24-2.82h4.23l2.87-2.67"/>
      </g>
      <path class="cls-1" d="M47.14,61.74c.63-4.8,0-8.76-.64-10.89-.5-1.65-5.62-2.01-5.62-2.01l-2.85-5.96s-5.69,6.57-6.3,7.9c-.54,1.18-1.08,3.35-.13,4.27.88.85,2.48,3.32,3.26,4.38.52.71.57,1.72.48,2.8"/>
    </g>
    <path class="cls-1" d="M62.63,62.63c3.12-3.12,5.47-6.73,7.03-10.59,1.56-3.85,2.34-7.95,2.34-12.04s-.78-8.19-2.34-12.04c-1.56-3.85-3.91-7.46-7.03-10.59s-6.73-5.47-10.59-7.03c-3.85-1.56-7.95-2.34-12.04-2.34"/>
    <polyline class="cls-1" points="68.7 62.38 62.19 63.26 61.46 56.87"/>
    <circle class="cls-1" cx="40" cy="40" r="23.3"/>
    <path class="cls-1" d="M17.37,17.37c-3.12,3.12-5.47,6.73-7.03,10.59-1.56,3.85-2.34,7.95-2.34,12.04s.78,8.19,2.34,12.04c1.56,3.85,3.91,7.46,7.03,10.59s6.73,5.47,10.59,7.03c3.85,1.56,7.95,2.34,12.04,2.34"/>
    <polyline class="cls-1" points="11.3 17.62 17.81 16.74 18.54 23.13"/>
    </symbol>
  <!-- icon-env-03 -->
    <symbol id="icon-env-03" stroke-width="2.4" fill="none" stroke-linecap="round" stroke-linejoin="round" stroke="currentColor" viewBox="0 0 80 80">
      <path class="cls-1" d="M48.21,57.36c5.29-.96,13.29-5.52,13.29-5.52,4.09-1.79,7.08-3.11,8.87-1.95,1.72,1.12,1.94,2.46.08,3.83-3.86,2.85-17.56,11.78-22.29,14.61-1.03.62-2.13,1.11-3.28,1.47h0c-2.01.63-4.12.84-6.21.62l-15.11-1.58c-.66-.15-1.35-.03-1.92.33l-3.51,2.22"/>
      <path class="cls-1" d="M7.76,54.93l6.68-4.06c3.23-1.96,7.16-2.63,10.76-1.51.26.08.5.17.72.25,1.1.44,2.31.87,3.53,1.48l.46.15c4.73,1.38,9.6,2.25,14.53,2.47h0c1.09.05,2.05.53,2.73,1.28.58.63.95,1.46,1.02,2.36.01.16,0-.16,0,0v.48c-.09,2.18-2.34,3.08-4.11,3.09l-10.39-.46h0s-3.35,2.53-8.33.57h0"/>
      <g>
        <path class="cls-1" d="M56.63,24.52v15.09l-2.81,1.14c-8.61,3.48-18.45,3.48-27.06,0l-2.81-1.14v-15.09"/>
        <polyline class="cls-1" points="15.9 31.47 15.9 21.55 36.56 19.71"/>
        <ellipse class="cls-1" cx="40.28" cy="19.6" rx="3.12" ry="2.34"/>
        <path class="cls-1" d="M15.9,31.47h0c.81,0,1.52.54,1.74,1.32l1.29,4.64h-6.05l1.29-4.64c.22-.78.93-1.32,1.74-1.32"/>
        <polygon class="cls-1" points="11.46 19.6 40.28 30.42 69.11 19.6 40.28 8.77 11.46 19.6"/>
      </g>
    </symbol>
    <!-- icon-env-04 -->
  <symbol id="icon-env-04" stroke-width="2.4" fill="none" stroke-linecap="round" stroke-linejoin="round" stroke="currentColor" viewBox="0 0 80 80">
    <g>
      <polyline class="cls-1" points="55.5 50.53 46.98 50.53 46.98 46.14 37.74 54.18 46.98 62.24 46.98 57.83 57.1 57.83 63.02 48.95 57.02 38.55 50.7 42.2 55.5 50.53 61.97 50.53"/>
      <polyline class="cls-1" points="39.8 23.45 44.11 30.8 40.33 33.02 51.93 36.93 54.21 24.88 50.41 27.11 45.29 17.76 34.63 17.76 28.7 28.2 35.05 31.81 39.8 23.45 36.53 17.76"/>
      <polyline class="cls-1" points="24.09 50.53 28.37 43.16 32.16 45.36 29.85 33.33 18.24 37.28 22.06 39.49 16.98 48.24 21.68 57.82 33.69 57.85 33.7 50.55 24.09 50.53 20.84 56.12"/>
    </g>
    <circle class="cls-1" cx="40" cy="40" r="32"/>
  </symbol>
  <!-- icon-env-05 -->
  <symbol id="icon-env-05" stroke-width="2.4" fill="none" stroke-linecap="round" stroke-linejoin="round" stroke="currentColor" viewBox="0 0 80 80">
    <g>
      <g>
        <g>
          <path class="cls-1" d="M64.36,40.89c1.63-4.05,1.96-11.52,1.96-11.52.54-3.58.93-6.21,2.5-6.94,1.51-.7,2.53-.26,2.66,1.61.28,3.89.49,17.17.39,21.64-.02.98-.16,1.94-.41,2.89h0c-.44,1.65-1.21,3.2-2.26,4.54l-7.63,9.69c-.39.39-.6.91-.6,1.46v3.37"/>
          <path class="cls-1" d="M45.18,67.62l.11-6.35c.05-3.07,1.29-6.05,3.62-8.05.17-.14.33-.27.49-.39.78-.57,1.6-1.21,2.55-1.79l.31-.25c3-2.65,5.71-5.62,7.99-8.91h0c.5-.73,1.25-1.18,2.06-1.33.69-.12,1.41-.03,2.06.32.11.06-.11-.07,0,0l.33.2c1.45,1.01,1.1,2.94.34,4.17l-4.81,6.94h0s.29,3.4-3.22,5.97h0"/>
          <polyline class="cls-1" points="43.65 72.66 43.65 67.62 63.57 67.62 63.57 72.66"/>
        </g>
        <g>
          <path class="cls-1" d="M15.81,40.89c-1.63-4.05-1.96-11.52-1.96-11.52-.22-2.18-.53-6.17-2.7-7.14h0c-.83-.38-1.79.11-1.96,1.01,0,0-1.69,8.37-.85,23.91.02.44.75,3.58,1.03,3.92l9.23,11.73c.39.39.6.91.6,1.46v3.37"/>
          <path class="cls-1" d="M35,67.62l-.11-6.35c-.05-3.07-1.29-6.05-3.62-8.05-.17-.14-.33-.27-.49-.39-.78-.57-1.6-1.21-2.55-1.79l-.31-.25c-3-2.65-5.71-5.62-7.99-8.91h0c-.5-.73-1.25-1.18-2.06-1.33-.69-.12-1.41-.03-2.06.32-.11.06-.33.2-.33.2-1.45,1.01-1.1,2.94-.34,4.17l4.81,6.94h0s-.29,3.4,3.22,5.97h0"/>
          <polyline class="cls-1" points="36.53 72.66 36.53 67.62 16.6 67.62 16.6 72.66"/>
        </g>
      </g>
      <g>
        <line class="cls-1" x1="34.54" y1="45.86" x2="34.54" y2="37.02"/>
        <path class="cls-1" d="M50.66,45.86h0v-9.32c0-2.63-1.98-4.93-4.82-5.61h0c-3.84-.92-7.84-.92-11.68,0h0c-2.84.68-4.82,2.98-4.82,5.61v9.32h0"/>
        <line class="cls-1" x1="45.46" y1="37.02" x2="45.46" y2="45.86"/>
      </g>
      <g>
        <g>
          <line class="cls-1" x1="56.95" y1="36.86" x2="56.95" y2="28.51"/>
          <path class="cls-1" d="M48.01,22.31h0c3.13-.75,6.4-.75,9.53,0h0c2.32.56,3.93,2.43,3.93,4.58v6.7h0"/>
        </g>
        <g>
          <line class="cls-1" x1="23.05" y1="36.86" x2="23.05" y2="28.51"/>
          <path class="cls-1" d="M31.99,22.31h0c-3.13-.75-6.4-.75-9.53,0h0c-2.32.56-3.93,2.43-3.93,4.58v6.7h0"/>
        </g>
      </g>
    </g>
    <circle class="cls-1" cx="40" cy="21.62" r="4.66"/>
    <circle class="cls-1" cx="54.22" cy="13" r="4.66"/>
    <circle class="cls-1" cx="25.78" cy="13" r="4.66"/>
  </symbol>

</svg>