<svg id="レイヤー_1" data-name="レイヤー 1" xmlns="http://www.w3.org/2000/svg" xmlns:xlink="http://www.w3.org/1999/xlink" viewBox="0 0 128 128"><defs><style>.cls-1{fill:#e7e7e7;}.cls-2{fill:url(#名称未設定グラデーション);}.cls-3{fill:url(#名称未設定グラデーション_2);}.cls-4{fill:url(#名称未設定グラデーション_3);}.cls-5{fill:url(#名称未設定グラデーション_4);}.cls-6{fill:url(#名称未設定グラデーション_5);}.cls-7{fill:url(#名称未設定グラデーション_6);}.cls-8{fill:url(#名称未設定グラデーション_7);}.cls-9{fill:url(#名称未設定グラデーション_8);}.cls-10{fill:url(#名称未設定グラデーション_9);}.cls-11{fill:url(#名称未設定グラデーション_10);}.cls-12{fill:url(#名称未設定グラデーション_11);}.cls-13{fill:url(#名称未設定グラデーション_12);}.cls-14{fill:url(#名称未設定グラデーション_14);}.cls-15{fill:url(#名称未設定グラデーション_15);}.cls-16{fill:url(#名称未設定グラデーション_16);}.cls-17{fill:url(#名称未設定グラデーション_17);}.cls-18{fill:url(#名称未設定グラデーション_18);}.cls-19{fill:url(#名称未設定グラデーション_19);}.cls-20{fill:url(#名称未設定グラデーション_20);}.cls-21{fill:url(#名称未設定グラデーション_21);}.cls-22{fill:url(#名称未設定グラデーション_22);}</style><linearGradient id="名称未設定グラデーション" x1="56.18" y1="117.11" x2="68.86" y2="31.09" gradientTransform="matrix(1, 0, 0, -1, 0, 128.5)" gradientUnits="userSpaceOnUse"><stop offset="0" stop-color="#3d4451"/><stop offset="1" stop-color="#3d4451"/></linearGradient><linearGradient id="名称未設定グラデーション_2" x1="52.73" y1="116.61" x2="65.41" y2="30.59" xlink:href="#名称未設定グラデーション"/><linearGradient id="名称未設定グラデーション_3" x1="47.69" y1="115.86" x2="60.37" y2="29.84" xlink:href="#名称未設定グラデーション"/><linearGradient id="名称未設定グラデーション_4" x1="59.48" y1="117.6" x2="72.16" y2="31.58" xlink:href="#名称未設定グラデーション"/><linearGradient id="名称未設定グラデーション_5" x1="64.94" y1="118.4" x2="77.62" y2="32.38" xlink:href="#名称未設定グラデーション"/><linearGradient id="名称未設定グラデーション_6" x1="56.2" y1="117.11" x2="68.88" y2="31.09" xlink:href="#名称未設定グラデーション"/><linearGradient id="名称未設定グラデーション_7" x1="58.21" y1="117.41" x2="70.89" y2="31.39" xlink:href="#名称未設定グラデーション"/><linearGradient id="名称未設定グラデーション_8" x1="56.92" y1="117.23" x2="69.6" y2="31.2" xlink:href="#名称未設定グラデーション"/><linearGradient id="名称未設定グラデーション_9" x1="55.15" y1="116.96" x2="67.83" y2="30.94" xlink:href="#名称未設定グラデーション"/><linearGradient id="名称未設定グラデーション_10" x1="55.85" y1="119.48" x2="69.1" y2="29.59" xlink:href="#名称未設定グラデーション"/><linearGradient id="名称未設定グラデーション_11" x1="60.45" y1="117.74" x2="73.13" y2="31.72" xlink:href="#名称未設定グラデーション"/><linearGradient id="名称未設定グラデーション_12" x1="84.72" y1="121.32" x2="97.4" y2="35.3" xlink:href="#名称未設定グラデーション"/><linearGradient id="名称未設定グラデーション_14" x1="74.44" y1="119.81" x2="87.12" y2="33.78" xlink:href="#名称未設定グラデーション"/><linearGradient id="名称未設定グラデーション_15" x1="51.24" y1="116.39" x2="63.92" y2="30.36" xlink:href="#名称未設定グラデーション"/><linearGradient id="名称未設定グラデーション_16" x1="26.98" y1="112.81" x2="39.66" y2="26.79" xlink:href="#名称未設定グラデーション"/><linearGradient id="名称未設定グラデーション_17" x1="26.98" y1="112.81" x2="39.66" y2="26.79" xlink:href="#名称未設定グラデーション"/><linearGradient id="名称未設定グラデーション_18" x1="37.25" y1="114.32" x2="49.93" y2="28.3" xlink:href="#名称未設定グラデーション"/><linearGradient id="名称未設定グラデーション_19" x1="49.22" y1="116.09" x2="61.9" y2="30.06" xlink:href="#名称未設定グラデーション"/><linearGradient id="名称未設定グラデーション_20" x1="70.77" y1="119.26" x2="83.45" y2="33.24" xlink:href="#名称未設定グラデーション"/><linearGradient id="名称未設定グラデーション_21" x1="41.78" y1="114.99" x2="54.46" y2="28.97" xlink:href="#名称未設定グラデーション"/><linearGradient id="名称未設定グラデーション_22" x1="60.28" y1="117.72" x2="72.96" y2="31.69" xlink:href="#名称未設定グラデーション"/></defs><title>icon_group-nom</title><path class="cls-1" d="M63.93,4a60,60,0,1,1-60,60,60,60,0,0,1,60-60m0-4a64,64,0,1,0,64,64A64,64,0,0,0,63.93,0Z"/><path class="cls-2" d="M63.93,85.71A21.71,21.71,0,1,1,85.65,64,21.71,21.71,0,0,1,63.93,85.71Zm0-42.1A20.39,20.39,0,1,0,84.33,64,20.39,20.39,0,0,0,63.93,43.61Z"/><path class="cls-3" d="M62.77,85.39a.66.66,0,0,1-.54-.28,36.25,36.25,0,0,1-5.79-28.65,41.78,41.78,0,0,1,5-13.17.66.66,0,0,1,1.11.71,41.28,41.28,0,0,0-4.86,12.77,35,35,0,0,0,5.59,27.58.66.66,0,0,1-.54,1Z"/><path class="cls-4" d="M57.51,84.4a.33.33,0,0,1-.23-.1c-6.81-6.81-10-13.91-9.43-21.11.9-11.76,11.61-19.74,11.72-19.82a.33.33,0,0,1,.39.53c-.12.1-10.59,7.9-11.46,19.35-.53,7,2.58,13.93,9.24,20.59a.33.33,0,0,1-.23.56Z"/><path class="cls-5" d="M66.07,85.39a.66.66,0,0,1-.54-1c5.87-8.27,7.11-17.65,3.7-27.89a44.75,44.75,0,0,0-7-13,.66.66,0,0,1,1-.84A45.21,45.21,0,0,1,70.46,56c2.46,7.34,3.78,18.35-3.86,29.11A.66.66,0,0,1,66.07,85.39Z"/><path class="cls-6" d="M69.26,84.44a.33.33,0,0,1-.21-.58Q79.47,75.07,79.18,65.1c-.37-12-12.51-21.1-12.63-21.19a.33.33,0,1,1,.35-.56l0,0c.13.09,12.52,9.39,12.9,21.7.21,6.85-3.28,13.34-10.36,19.29A.33.33,0,0,1,69.26,84.44Z"/><path class="cls-7" d="M64.49,69.28a68.46,68.46,0,0,1-21.68-3.66.66.66,0,1,1,.36-1.27l.06,0c25.07,8.35,41.45-.52,41.61-.61a.66.66,0,0,1,.64,1.15,38.84,38.84,0,0,1-11.65,3.61A56.31,56.31,0,0,1,64.49,69.28Z"/><path class="cls-8" d="M63.15,48.69A38.69,38.69,0,0,1,52,47a.33.33,0,0,1,.21-.62c.12,0,12.34,4.13,22.44-.75a.33.33,0,0,1,.29.59A27,27,0,0,1,63.15,48.69Z"/><path class="cls-9" d="M64.18,60.26a73.85,73.85,0,0,1-20.51-3.1.33.33,0,0,1,.1-.65l.08,0c25.34,7.32,39.27-.71,39.4-.79a.33.33,0,0,1,.34.57h0C83.5,56.36,76.75,60.26,64.18,60.26Z"/><path class="cls-10" d="M63.19,77.53A47,47,0,0,1,45.11,74a.33.33,0,1,1,.28-.6c.18.09,18.43,8.44,37.66-1.22a.33.33,0,1,1,.3.59h0A44.57,44.57,0,0,1,63.19,77.53Z"/><path class="cls-11" d="M63.93,86.68A22.68,22.68,0,1,1,86.63,64,22.68,22.68,0,0,1,63.93,86.68Zm0-44A21.31,21.31,0,1,0,85.25,64,21.31,21.31,0,0,0,63.93,42.68Z"/><path class="cls-12" d="M64.07,38.57a3.24,3.24,0,1,1,3.24-3.24h0A3.24,3.24,0,0,1,64.07,38.57Zm0-4.78a1.54,1.54,0,1,0,1.54,1.54,1.54,1.54,0,0,0-1.54-1.54Z"/><path class="cls-13" d="M91.25,64.27h4.42v4.42H91.25Z"/><path class="cls-13" d="M95.8,68.82H91.12V64.14H95.8Zm-4.42-.26h4.16V64.4H91.38Z"/><path class="cls-14" d="M94.53,62.69H92.65a26.62,26.62,0,0,0-26.6-26.58V34.23A28.5,28.5,0,0,1,94.53,62.69Z"/><path class="cls-15" d="M63.3,97.18a3.24,3.24,0,1,1,3.24-3.24h0A3.24,3.24,0,0,1,63.3,97.18Zm0-4.78a1.54,1.54,0,1,0,1.54,1.54h0A1.54,1.54,0,0,0,63.3,92.4Z"/><path class="cls-16" d="M36.13,65H31.71V60.58h4.42Z"/><path class="cls-17" d="M36.26,65.14H31.58V60.46h4.68Zm-4.42-.26H36V60.72H31.83Z"/><path class="cls-18" d="M61.32,95A28.5,28.5,0,0,1,32.84,66.59h1.88a26.62,26.62,0,0,0,26.6,26.58Z"/><circle class="cls-19" cx="56.19" cy="59.73" r="2.63"/><circle class="cls-20" cx="77.92" cy="57.75" r="1.32"/><circle class="cls-21" cx="50.92" cy="75.52" r="1.32"/><circle class="cls-22" cx="70.02" cy="76.84" r="1.97"/></svg>