<?xml version="1.0" encoding="utf-8"?>
<!-- Generator: Adobe Illustrator 25.4.1, SVG Export Plug-In . SVG Version: 6.00 Build 0)  -->
<svg version="1.1" id="industrial" xmlns="http://www.w3.org/2000/svg" xmlns:xlink="http://www.w3.org/1999/xlink" x="0px" y="0px"
	 viewBox="0 0 128 128" style="enable-background:new 0 0 128 128;" xml:space="preserve">
<style type="text/css">
	.st0{fill:#C5C5C5;}
</style>
<path class="st0" d="M63.9,4c33.1,0,60,26.9,60,60s-26.9,60-60,60s-60-26.9-60-60S30.8,4,63.9,4 M63.9,0c-35.3,0-64,28.7-64,64
	s28.7,64,64,64s64-28.7,64-64S99.3,0,63.9,0z"/>
<path class="st0" d="M52.1,59.2c0.6,0,1,0.4,1,1v2.6h-3v-2.6c0-0.6,0.4-1,1-1L52.1,59.2 M52.1,58h-1c-1.1,0-2,0.9-2,2v3.7h5.1v-3.6
	C54.2,59,53.3,58.1,52.1,58L52.1,58z M64.1,59.1c0.5,0,1,0.5,0.9,1v2.6h-3v-2.6c0-0.6,0.4-1,1-1H64.1 M64.1,58h-1c-1.1,0-2,0.9-2,2
	v3.7h5.1v-3.6C66.2,59,65.3,58.1,64.1,58L64.1,58z M76.3,59.1c0.5,0,1,0.5,0.9,1v2.6h-3v-2.6c0-0.5,0.4-1,0.9-1H76.3 M76.2,58h-1
	c-1.1,0-2,0.9-2,2v3.7h5.1v-3.6C78.3,59,77.4,58.1,76.2,58L76.2,58z M44.6,76.7c0.8,0,1.4,0.6,1.4,1.4l0,0v3.5h-4.2v-3.5
	c0-0.8,0.6-1.4,1.4-1.4l0,0H44.6 M44.6,75.6h-1.3c-1.4,0-2.5,1.1-2.5,2.5v4.6h6.3v-4.6C47.1,76.7,46,75.6,44.6,75.6L44.6,75.6z
	 M58,76.7c0.8,0,1.4,0.6,1.4,1.4l0,0v3.5h-4.2v-3.5c0-0.8,0.6-1.4,1.4-1.4l0,0H58 M58,75.6h-1.3c-1.4,0-2.5,1.1-2.5,2.5v4.6h6.3
	v-4.6C60.5,76.7,59.4,75.6,58,75.6z M71.6,76.7c0.8,0,1.4,0.7,1.4,1.4v3.5h-4.1v-3.5c0-0.8,0.6-1.4,1.4-1.4c0,0,0,0,0,0H71.6
	 M71.6,75.6h-1.3c-1.4,0-2.5,1.1-2.5,2.5v4.6h6.3v-4.6C74.1,76.7,73,75.6,71.6,75.6z M84.8,76.7c0.8,0,1.4,0.6,1.4,1.4c0,0,0,0,0,0
	v3.5h-4.2v-3.5c0-0.8,0.6-1.4,1.4-1.4c0,0,0,0,0,0H84.8 M84.8,75.6h-1.3c-1.4,0-2.5,1.1-2.5,2.5c0,0,0,0,0,0v4.6h6.3v-4.6
	C87.3,76.7,86.2,75.6,84.8,75.6L84.8,75.6z"/>
<path class="st0" d="M99.6,85V67.3h-9.5v-16h-8.5l-0.5-18.6h-7.5L73,51.3h-4.4l-0.5-18.6h-7.5L60,51.3h-4.4l-0.5-18.6h-7.6
	l-0.5,18.6h-9.3v16h-7.2V85h2.2V69.5h64.7V85H99.6z M75.7,34.8h3.3l0.4,16.4h-4.3L75.7,34.8z M62.7,34.8h3.3l0.4,16.4h-4.2
	L62.7,34.8z M49.7,34.8H53l0.4,16.4h-4.3L49.7,34.8z M39.9,53.5h48v13.9h-48V53.5z"/>
</svg>
