<svg id="industrial" xmlns="http://www.w3.org/2000/svg" viewBox="0 0 128 128"><defs><style>.cls-1{fill:#96aabd}.cls-2,.cls-3{fill:none;stroke:#37464c;stroke-linejoin:round;stroke-width:2.3px}.cls-2{stroke-linecap:round}</style></defs><path class="cls-1" d="M63.93 4a60 60 0 1 1-60 60 60.07 60.07 0 0 1 60-60m0-4a64 64 0 1 0 64 64 64 64 0 0 0-64-64z"/><path class="cls-2" d="M39.13 62.58l-1.37-10.43A2.45 2.45 0 0 0 35.33 50a2.45 2.45 0 0 0-2.45 2.45V70a4.6 4.6 0 0 0 1.35 3.25l11.1 11.07a4.6 4.6 0 0 1 1.35 3.25v1.54"/><path class="cls-2" d="M60.48 89.12v-9A10.29 10.29 0 0 0 52.3 70a20.64 20.64 0 0 0-2.2-.32 4.63 4.63 0 0 1-2.86-1.32l-5-5a3 3 0 0 0-4-.32 2.88 2.88 0 0 0-.22 4.27l8 8m42.71-12.73l1.37-10.43A2.45 2.45 0 0 1 92.53 50 2.45 2.45 0 0 1 95 52.46V70a4.6 4.6 0 0 1-1.35 3.25L82.53 84.32a4.6 4.6 0 0 0-1.35 3.25v1.54"/><path class="cls-2" d="M67.38 89.12v-9A10.28 10.28 0 0 1 75.51 70a20.6 20.6 0 0 1 2.26-.33 4.61 4.61 0 0 0 2.85-1.32l5-5a3 3 0 0 1 4-.31 2.88 2.88 0 0 1 .22 4.27l-8 8"/><circle class="cls-3" cx="63.93" cy="46.57" r="5.75"/><path class="cls-3" d="M72 66.12a3.45 3.45 0 0 0 3.45-3.45v-3.45a3.74 3.74 0 0 0-2.77-3.57l-3-1-5.75 5.75-5.75-5.75-3 1a3.74 3.74 0 0 0-2.77 3.57v3.45a3.45 3.45 0 0 0 3.45 3.45z"/><path class="cls-2" d="M63.93 31.62v4.6m-7.47-2.6l2.3 3.98m12.65-3.98l-2.3 3.98m-20.13 8.97h4.6m20.7 0h4.6m-29.9 0h4.6m20.7 0h4.6m-27.9-7.48l3.99 2.3m17.92 0l3.99-2.3"/><circle class="cls-1" cx="63.93" cy="64" r="64" opacity=".75"/></svg>