<svg id="industrial" xmlns="http://www.w3.org/2000/svg" viewBox="0 0 128 128"><defs><style>.cls-1{fill:#e7e7e7;}.cls-2{fill:#3d4451;stroke:#3d4451;stroke-miterlimit:10;}</style></defs><title>icon_business-nom</title><path class="cls-1" d="M63.93,4a60,60,0,1,1-60,60,60,60,0,0,1,60-60m0-4a64,64,0,1,0,64,64A64,64,0,0,0,63.93,0Z"/><path class="cls-2" d="M88.64,89.53h-47a3.07,3.07,0,0,1-3.07-3.07V84a3.07,3.07,0,0,1,3.07-3.07h47A3.07,3.07,0,0,1,91.71,84v2.45a3.07,3.07,0,0,1-3.06,3.08Zm-47-6.67A1.15,1.15,0,0,0,40.45,84v2.48A1.15,1.15,0,0,0,41.6,87.6h47a1.15,1.15,0,0,0,1.15-1.15h0V84a1.15,1.15,0,0,0-1.15-1.15h-47Z"/><path class="cls-2" d="M87.14,82.68H65V57.42H81.77ZM66.26,81.41h19.3L80.73,58.7H66.26Zm7-26.56a8.17,8.17,0,1,1,8.17-8.17h0A8.18,8.18,0,0,1,73.29,54.85Zm0-15a6.82,6.82,0,1,0,6.82,6.82h0a6.83,6.83,0,0,0-6.82-6.8Z"/><path class="cls-2" d="M73.29,50.67a4,4,0,1,1,4-4A4,4,0,0,1,73.29,50.67ZM48.78,44.74a5.47,5.47,0,1,1,5.47-5.47A5.47,5.47,0,0,1,48.78,44.74Zm0-9.74A4.27,4.27,0,1,0,53,39.27,4.27,4.27,0,0,0,48.78,35Z"/><path class="cls-2" d="M48.78,41a1.72,1.72,0,1,1,1.72-1.72A1.72,1.72,0,0,1,48.78,41Zm26-1.3H74.7l-22.79-4a.51.51,0,0,1,.18-1l22.79,4a.51.51,0,0,1-.09,1Zm-6.9,12.74a.5.5,0,0,1-.23-.06L51.32,44a.51.51,0,0,1,.46-.9l16.34,8.39a.51.51,0,1,1-.23,1ZM45,59.56V48.22a.64.64,0,0,1,1.28,0h0V57.6l4.78-2.1.06-7.28a.64.64,0,0,1,1.27,0l-.07,8.11Z"/><path class="cls-2" d="M48.71,65.62a.64.64,0,0,1-.64-.64V58.16a.64.64,0,1,1,1.28,0h0V65A.64.64,0,0,1,48.71,65.62Zm-.13,13.5h6.14l-3.07-5.33-3.07-5.32L45.5,73.79l-3.07,5.33Z"/></svg>