<?xml version="1.0" encoding="UTF-8"?>
<svg xmlns="http://www.w3.org/2000/svg">
  <defs>
    <symbol id="icon-download" viewBox="0 0 24 24">
      <path d="M11.29,18.29l-3.95-3.95c-.39-.39-.39-1.02,0-1.41.39-.39,1.02-.39,1.41,0l2.24,2.24V3c0-.55.45-1,1-1s1,.45,1,1v12.17l2.24-2.24c.39-.39,1.02-.39,1.41,0,.39.39.39,1.02,0,1.41l-3.95,3.95c-.39.39-1.02.39-1.41,0Z"/>
      <path d="M1,21c0,.55.45,1,1,1h20c.55,0,1-.45,1-1v-3c0-.55-.45-1-1-1s-1,.45-1,1v2H3v-2c0-.55-.45-1-1-1s-1,.45-1,1v3Z"/>
    </symbol>
  </defs>
</svg>