<svg id="industrial" xmlns="http://www.w3.org/2000/svg" viewBox="0 0 128 128"><defs><style>.cls-1{fill:#e7e7e7;}.cls-2{fill:none;stroke:#3d4451;stroke-linecap:round;stroke-miterlimit:10;stroke-width:2.16px;}.cls-3{fill:#3d4451;}</style></defs><title>icon_company-nom</title><path class="cls-1" d="M63.93,4a60,60,0,1,1-60,60,60,60,0,0,1,60-60m0-4a64,64,0,1,0,64,64A64,64,0,0,0,63.93,0Z"/><path class="cls-2" d="M38.85,68.37v-16H89v16M48.61,33.74h5.47l.5,18.56H48.11Zm13,0H67l.5,18.56H61.08Zm13,0H80l.5,18.56H74Z"/><path class="cls-3" d="M52.12,59.18a1,1,0,0,1,1,1v2.59H50.14V60.13a1,1,0,0,1,1-1h1m0-1.08h-1a2,2,0,0,0-2,2v3.7h5.09V60.13a2,2,0,0,0-2-2Zm12,1.08a1,1,0,0,1,.95,1v2.59H62.1V60.13a1,1,0,0,1,1-1h1m0-1.08h-1a2,2,0,0,0-2,2v3.7h5.09V60.13a2,2,0,0,0-2-2Zm12.18,1.08a1,1,0,0,1,.95,1v2.59H74.25V60.13a1,1,0,0,1,.95-1h1m0-1.08h-1a2,2,0,0,0-2,2v3.7h5.09V60.13a2,2,0,0,0-2-2ZM44.56,76.68A1.44,1.44,0,0,1,46,78.12h0v3.49H41.83V78.12a1.44,1.44,0,0,1,1.44-1.44h1.29m0-1.08H43.28a2.52,2.52,0,0,0-2.52,2.52v4.57h6.33V78.12a2.52,2.52,0,0,0-2.52-2.52ZM58,76.68a1.44,1.44,0,0,1,1.44,1.44h0v3.49h-4.2V78.12a1.44,1.44,0,0,1,1.44-1.44H58m0-1.08H56.68a2.52,2.52,0,0,0-2.52,2.52v4.57h6.33V78.12A2.52,2.52,0,0,0,58,75.6Zm13.6,1.08A1.44,1.44,0,0,1,73,78.12v3.49H68.87V78.12a1.44,1.44,0,0,1,1.44-1.44H71.6m0-1.08H70.31a2.52,2.52,0,0,0-2.52,2.52v4.57h6.33V78.12A2.52,2.52,0,0,0,71.6,75.6Zm13.22,1.08a1.44,1.44,0,0,1,1.44,1.44h0v3.49H82.09V78.12a1.44,1.44,0,0,1,1.44-1.44h1.29m0-1.08H83.53A2.52,2.52,0,0,0,81,78.11h0v4.57h6.33V78.12a2.52,2.52,0,0,0-2.52-2.52Z"/><path class="cls-2" d="M31.63,85V68.42h66.9V85"/></svg>