<svg id="industrial" xmlns="http://www.w3.org/2000/svg" viewBox="0 0 128 128"><defs><style>.cls-2{fill:#3d4451;stroke:#3d4451;stroke-miterlimit:10}</style><radialGradient id="名称未設定グラデーション_3" cx="63.93" cy="64" r="64" gradientUnits="userSpaceOnUse"><stop offset="0" stop-color="#fff"/><stop offset="1" stop-color="#96aabd"/></radialGradient></defs><path d="M63.93 4a60 60 0 1 1-60 60 60.07 60.07 0 0 1 60-60m0-4a64 64 0 1 0 64 64 64 64 0 0 0-64-64z" fill="#96aabd"/><path class="cls-2" d="M88.64 89.53h-47a3.07 3.07 0 0 1-3.07-3.07V84a3.07 3.07 0 0 1 3.07-3.07h47A3.07 3.07 0 0 1 91.71 84v2.45a3.07 3.07 0 0 1-3.07 3.08zm-47-6.67A1.15 1.15 0 0 0 40.45 84v2.45a1.15 1.15 0 0 0 1.15 1.15h47a1.15 1.15 0 0 0 1.15-1.15V84a1.15 1.15 0 0 0-1.15-1.15z"/><path class="cls-2" d="M87.14 82.68H65V57.42h16.77zm-20.88-1.27h19.3L80.73 58.7H66.26zm7.03-26.56a8.17 8.17 0 1 1 8.17-8.17 8.18 8.18 0 0 1-8.17 8.17zm0-15a6.82 6.82 0 1 0 6.82 6.82 6.83 6.83 0 0 0-6.82-6.8z"/><path class="cls-2" d="M73.29 50.67a4 4 0 1 1 4-4 4 4 0 0 1-4 4zm-24.51-5.93a5.47 5.47 0 1 1 5.47-5.47 5.48 5.48 0 0 1-5.47 5.47zm0-9.74a4.27 4.27 0 1 0 4.27 4.27A4.28 4.28 0 0 0 48.78 35z"/><path class="cls-2" d="M48.78 41a1.72 1.72 0 1 1 1.72-1.72A1.73 1.73 0 0 1 48.78 41zm26.01-1.3h-.09l-22.79-4a.51.51 0 0 1 .18-1l22.79 4a.51.51 0 0 1-.09 1zm-6.9 12.74a.5.5 0 0 1-.23-.06L51.32 44a.51.51 0 0 1 .46-.9l16.34 8.39a.51.51 0 0 1-.23 1zM45 59.56V48.22a.64.64 0 1 1 1.28 0v9.38l4.78-2.1.06-7.28a.64.64 0 0 1 .64-.63.64.64 0 0 1 .63.64l-.07 8.11z"/><path class="cls-2" d="M48.71 65.62a.64.64 0 0 1-.64-.64v-6.82a.64.64 0 1 1 1.28 0V65a.64.64 0 0 1-.64.62zm-.13 13.5h6.14l-3.07-5.33-3.07-5.32-3.08 5.32-3.07 5.33h6.15z"/><circle cx="63.93" cy="64" r="64" fill="url(#名称未設定グラデーション_3)" opacity=".5"/></svg>