<?xml version="1.0" encoding="utf-8"?>
<!-- Generator: Adobe Illustrator 25.4.1, SVG Export Plug-In . SVG Version: 6.00 Build 0)  -->
<svg version="1.1" id="industrial" xmlns="http://www.w3.org/2000/svg" xmlns:xlink="http://www.w3.org/1999/xlink" x="0px" y="0px"
	 viewBox="0 0 128 128" style="enable-background:new 0 0 128 128;" xml:space="preserve">
<style type="text/css">
	.st0{fill:#C5C5C5;}
	.st1{fill:#C5C5C5;stroke:#C5C5C5;stroke-miterlimit:10;}
</style>
<path class="st0" d="M63.9,4c33.1,0,60,26.9,60,60s-26.9,60-60,60s-60-26.9-60-60S30.8,4,63.9,4 M63.9,0c-35.3,0-64,28.7-64,64
	s28.7,64,64,64s64-28.7,64-64S99.3,0,63.9,0z"/>
<path class="st1" d="M88.6,89.5h-47c-1.7,0-3.1-1.4-3.1-3.1V84c0-1.7,1.4-3.1,3.1-3.1h47c1.7,0,3.1,1.4,3.1,3.1v2.4
	C91.7,88.1,90.3,89.5,88.6,89.5C88.7,89.5,88.7,89.5,88.6,89.5L88.6,89.5z M41.6,82.9c-0.6,0-1.2,0.5-1.2,1.1l0,0v2.5
	c0,0.6,0.5,1.1,1.2,1.1h47c0.6,0,1.2-0.5,1.2-1.2l0,0V84c0-0.6-0.5-1.2-1.2-1.2l0,0L41.6,82.9L41.6,82.9z"/>
<path class="st1" d="M87.1,82.7H65V57.4h16.8L87.1,82.7z M66.3,81.4h19.3l-4.8-22.7H66.3V81.4z M73.3,54.9c-4.5,0-8.2-3.7-8.2-8.2
	s3.7-8.2,8.2-8.2s8.2,3.7,8.2,8.2l0,0C81.4,51.2,77.8,54.8,73.3,54.9L73.3,54.9z M73.3,39.9c-3.8,0-6.8,3.1-6.8,6.8s3.1,6.8,6.8,6.8
	c3.8,0,6.8-3.1,6.8-6.8l0,0C80.1,42.9,77,39.9,73.3,39.9L73.3,39.9z"/>
<path class="st1" d="M73.3,50.7c-2.2,0-4-1.8-4-4s1.8-4,4-4s4,1.8,4,4S75.5,50.7,73.3,50.7z M48.8,44.7c-3,0-5.5-2.4-5.5-5.5
	s2.4-5.5,5.5-5.5c3,0,5.5,2.4,5.5,5.5S51.8,44.7,48.8,44.7L48.8,44.7z M48.8,35c-2.4,0-4.3,1.9-4.3,4.2c0,2.4,1.9,4.3,4.2,4.3
	c2.4,0,4.3-1.9,4.3-4.2l0,0C53,36.9,51.1,35,48.8,35z"/>
<path class="st1" d="M48.8,41c-0.9,0-1.7-0.8-1.7-1.7s0.8-1.7,1.7-1.7s1.7,0.8,1.7,1.7S49.7,41,48.8,41L48.8,41z M74.8,39.7
	L74.8,39.7l-22.9-4c-0.3-0.1-0.4-0.4-0.4-0.6c0.1-0.2,0.3-0.4,0.5-0.4l22.8,4c0.3,0.1,0.4,0.4,0.4,0.6C75.2,39.5,75,39.7,74.8,39.7
	L74.8,39.7z M67.9,52.4c-0.1,0-0.2,0-0.2-0.1L51.3,44c-0.2-0.2-0.3-0.5-0.1-0.7c0.1-0.2,0.4-0.3,0.6-0.2l16.3,8.4
	c0.3,0.1,0.4,0.3,0.4,0.6C68.4,52.4,68.2,52.6,67.9,52.4L67.9,52.4z M45,59.6V48.2c0-0.4,0.3-0.6,0.6-0.6c0.4,0,0.6,0.3,0.6,0.6v9.4
	l4.8-2.1l0.1-7.3c0-0.4,0.4-0.6,0.7-0.6s0.5,0.3,0.6,0.6l-0.1,8.1L45,59.6z"/>
<path class="st1" d="M48.7,65.6c-0.4,0-0.6-0.3-0.6-0.6v-6.8c0-0.4,0.3-0.6,0.6-0.6s0.6,0.3,0.6,0.6l0,0V65
	C49.3,65.3,49.1,65.6,48.7,65.6z M48.6,79.1h6.1l-3.1-5.3l-3.1-5.3l-3.1,5.3l-3.1,5.3H48.6z"/>
</svg>
