<?xml version="1.0" encoding="UTF-8"?>
<svg id="industrial" xmlns="http://www.w3.org/2000/svg" version="1.1" viewBox="0 0 128 128">
  <!-- Generator: Adobe Illustrator 29.8.2, SVG Export Plug-In . SVG Version: 2.1.1 Build 3)  -->
  <defs>
    <style>
      .st0 {
        fill: #369;
      }
    </style>
  </defs>
  <path class="st0" d="M39.9,77.2c.4,0,.8-.1,1.1-.4.7-.6.8-1.7.2-2.5-6.5-7.8-9.6-17.8-8.7-27.9.1-1.4.3-2.8.6-4.1l3.4,3.9,3.3,4.1,1.4,5.5-.2,4.8c0,.5.2,1,.5,1.3l3.7,3.7,2.9,8.7c.3.9,1.3,1.4,2.2,1.1.9-.3,1.4-1.3,1.1-2.2l-3-9.1c0-.3-.2-.5-.4-.7l-3.4-3.4.2-4.3c0-.2,0-.3,0-.5l-1.5-6.2s0,0,0,0l1.2.9c.5.4,1.1.5,1.7.3l3.5-1.3,6.7,7.2,1.2,3.2c.2.5.6.9,1.1,1l6.5,2.2-2.2,4.7-2.6,4.3c-.1.2-.2.5-.2.8l-.2,4c0,1,.7,1.8,1.7,1.8,0,0,0,0,0,0,.9,0,1.7-.7,1.7-1.7l.2-3.5,2.4-4s0-.1,0-.2l3.1-6.6c.2-.4.2-1,0-1.4-.2-.5-.6-.8-1-1l-7.6-2.6-1-2.7c0-.2-.2-.4-.4-.6l-7.7-8.4c-.5-.5-1.2-.7-1.9-.4l-3.7,1.4-2.2-1.8,1.2-8.1,5.6.5c.8,0,1.6-.4,1.8-1.2l2.6-8,6-2.3c.6-.2,1-.7,1.1-1.3.1-.6,0-1.2-.5-1.6l-7.4-7.4c1.5-.7,2.9-1.3,4.5-1.8l6.1,6.6c.3.3.7.5,1.2.6l3.5.2s0,0,.1,0c.5,0,.9-.2,1.2-.5l7.9-8c1.8.4,3.6.9,5.3,1.5l-2.8,2.1c-.5.4-.8,1.1-.6,1.8l1,4.2-3.4,6.7c-.3.6-.3,1.2.1,1.8l2.6,4c.3.5.9.8,1.5.8s.2,0,.3,0l6.1-1.1c.5,0,.9-.3,1.1-.7l2.8-4.1,11.9,2.7c.8,1.5,1.5,3.1,2.1,4.7l-9.4,1.7-9.1-2.5c-.6-.2-1.2,0-1.6.4l-6.1,5.3c-.5.4-.7,1-.6,1.6l1.1,6.6c0,.6.5,1,1,1.3l4.2,2c.3.1.6.2,1,.2l4-.5,6.7,9-2.1,6.1c0,.1,0,.3,0,.4l-.2,2.2c0,1,.7,1.8,1.6,1.9,0,0,0,0,.1,0,.9,0,1.7-.7,1.7-1.6v-2c.1,0,2.5-6.8,2.5-6.8.2-.5,0-1.2-.3-1.6l-7.9-10.5c-.4-.5-1-.8-1.6-.7l-4.5.6-2.9-1.4-.8-4.7,4.7-4,8.5,2.4c.3,0,.5,0,.8,0l10.3-1.8c2.2,8.4,1.6,17.6-2.1,25.8-.4.9,0,1.9.9,2.3.9.4,1.9,0,2.3-.9,6.6-14.5,4.3-31.8-5.9-44.1-14.7-17.7-41.1-20.1-58.8-5.3-8.6,7.1-13.8,17.2-14.8,28.3-1,11.1,2.4,21.9,9.5,30.5.3.4.8.6,1.3.6ZM100,25.3c.7.8,1.3,1.6,1.8,2.4l-9.8-2.2c-.7-.2-1.4.1-1.8.7l-3.1,4.5-4.3.8-1.4-2.1,3.3-6.3c.2-.4.2-.8.2-1.2l-.8-3.7,3.5-2.6c4.7,2.3,9,5.6,12.6,9.8ZM74.1,11.7l-5.5,5.6h-2c0-.1-4.4-4.8-4.4-4.8,3.9-.9,8-1.1,11.9-.8ZM46.1,20.4c1.5-1.2,3-2.3,4.6-3.3l6.2,6.2-4.3,1.7c-.5.2-.9.6-1,1.1l-2.4,7.5-5.9-.5c-.9,0-1.8.6-1.9,1.5l-1.5,10.3-5.8-6.7c2.2-6.9,6.3-13,11.9-17.7Z"/>
  <path class="st0" d="M114.5,73.8c-3.8-4.6-9.6-4.6-15.6,0l-16.4,11.9c-1.9-1.7-4.9-2.6-8.7-2.6h-9.1c-12.7-9.1-26.5-6.6-37.3,6.7l-3.5-3.5c-.3-.3-.8-.5-1.2-.5h0c-.5,0-.9.2-1.2.5l-9.1,9.3c-.7.7-.7,1.8,0,2.5l26.4,26.4c.3.3.8.5,1.2.5h0c.5,0,.9-.2,1.2-.5l9.1-9.3c.7-.7.7-1.8,0-2.5l-3.7-3.7h32c3.4,0,5.6-.8,7.3-2.5l27.6-25.9c2.3-2,2.7-4.7.9-6.8ZM40,120.8l-24-23.9,6.7-6.8,17.9,17.8c.2.5.6.9,1,1l5.1,5-6.7,6.8ZM111.3,78l-27.7,26c-.8.8-1.9,1.5-4.9,1.5h-35.5l-13.2-13.2c9.8-12.3,21.8-14.5,33.2-6.1.3.2.7.3,1,.3h9.7c6.7,0,7.7,3,7.7,4.9,0,.7-.5,1.2-1.1,1.3h-21.8c-1,0-1.8.8-1.8,1.8s.8,1.8,1.8,1.8h21.9c2.6-.1,4.5-2.2,4.5-4.8,0-1.1-.2-2-.5-2.9l16.5-12c2.6-1.9,7.4-4.6,10.8-.5.3.4.7.9-.5,2Z"/>
</svg>