<?xml version="1.0" encoding="utf-8"?>
<!-- Generator: Adobe Illustrator 25.4.1, SVG Export Plug-In . SVG Version: 6.00 Build 0)  -->
<svg version="1.1" id="レイヤー_1" xmlns="http://www.w3.org/2000/svg" xmlns:xlink="http://www.w3.org/1999/xlink" x="0px"
	 y="0px" viewBox="0 0 128 128" style="enable-background:new 0 0 128 128;" xml:space="preserve">
<style type="text/css">
	.st0{fill:#C5C5C5;}
</style>
<path class="st0" d="M63.9,4c33.1,0,60,26.9,60,60s-26.9,60-60,60s-60-26.9-60-60S30.8,4,63.9,4 M63.9,0c-35.3,0-64,28.7-64,64
	s28.7,64,64,64s64-28.7,64-64S99.3,0,63.9,0z"/>
<g>
	<path class="st0" d="M64,41.3c-12.5,0-22.7,10.1-22.7,22.7c0,12.5,10.1,22.7,22.7,22.7c0,0,0,0,0,0c12.5,0,22.7-10.2,22.7-22.7
		C86.6,51.5,76.5,41.3,64,41.3z M70.7,83.2c2.8-2.5,5-5.2,6.5-7.9c1.6-0.5,3.2-1.2,4.8-1.9C79.7,77.9,75.6,81.5,70.7,83.2z M64,84.4
		c-0.2,0-0.4,0-0.7,0c0,0,0,0,0,0c-1.5-2.2-2.8-4.5-3.8-7c1.2,0.1,2.5,0.1,3.7,0.1c1.6,0,3.3-0.1,4.9-0.3c0.1,0.5,0.4,0.9,0.8,1.2
		c-0.9,2-1.9,4-3.3,5.9C65,84.3,64.5,84.4,64,84.4z M57.1,83.2c-2.1-2.2-3.9-4.5-5.3-6.8c0.1-0.1,0.1-0.1,0.1-0.2c2,0.5,4,0.8,6,1
		c0.9,2.4,2.2,4.8,3.6,7C60.1,84.1,58.6,83.7,57.1,83.2z M46.5,74.5c1,0.4,2.1,0.7,3.1,1.1c0,0.7,0.6,1.3,1.3,1.3
		c0.1,0,0.3,0,0.4-0.1c1.2,2,2.7,3.9,4.4,5.9C51.9,80.9,48.7,78.1,46.5,74.5z M82.7,56c-0.6,0.3-1.8,0.8-3.5,1.4
		c-0.2-0.6-0.6-1-1.3-1c-0.1,0-0.2,0-0.3,0.1c-1.7-3.6-4.1-6.7-6.2-8.9c1-0.3,1.9-0.6,2.9-1.1C78,48.7,81,52,82.7,56z M79.2,65.9
		c-1.9,0.5-4.1,1.1-6.8,1.5c0-2.7-0.3-5.3-0.9-7.6c2.1-0.3,4-0.7,5.5-1.1c0.2,0.2,0.5,0.3,0.9,0.3c0,0,0.1,0,0.1,0
		c0.7,1.9,1.1,3.9,1.2,6C79.2,65.4,79.2,65.6,79.2,65.9z M59.2,76.7c-1-2.5-1.6-5.2-2-7.8c2.4,0.3,4.8,0.4,7.3,0.4
		c2.2,0,4.4-0.1,6.6-0.4c-0.1,2-0.4,4-1,6c0,0-0.1,0-0.1,0c-1,0-1.8,0.7-1.9,1.7C64.9,76.9,61.9,76.9,59.2,76.7z M50.9,74.2
		c-0.1,0-0.1,0-0.2,0c-1.1-2.3-1.8-4.6-2.1-6.9c2.4,0.6,4.8,1,7.3,1.4c0.3,2.7,1,5.3,1.9,7.8c-2.1-0.2-3.9-0.6-5.5-0.9
		c0,0,0,0,0-0.1C52.2,74.8,51.6,74.2,50.9,74.2z M48.5,63.2c0.1-1.6,0.4-3.2,0.9-4.6c1.4,0.3,2.8,0.6,4.2,0.8c0,0.1,0,0.2,0,0.3
		c0,1.3,0.9,2.3,2.1,2.6c-0.1,1.7-0.1,3.3,0.1,5c-2.3-0.3-4.7-0.8-7.3-1.4C48.4,65,48.4,64.1,48.5,63.2z M76.7,58.1
		c-1.5,0.4-3.3,0.7-5.3,1C71.1,58,70.8,57,70.5,56c-0.9-2.6-2-5.1-3.4-7.5c1.2-0.2,2.5-0.4,3.7-0.7c2.1,2.2,4.6,5.3,6.3,9
		c-0.3,0.2-0.5,0.6-0.5,1C76.6,57.9,76.6,58,76.7,58.1z M71.1,67.5c-4,0.5-8.7,0.6-14.1,0c-0.2-1.7-0.2-3.5-0.1-5.2
		c1-0.3,1.7-1.2,1.8-2.2c1.8,0.1,3.6,0.2,5.4,0.2c2.2,0,4.2-0.1,6-0.3C70.8,62.5,71.1,65.1,71.1,67.5z M69.2,56.5
		c0.3,0.9,0.6,1.9,0.8,2.8c-3.2,0.3-7,0.4-11.3,0.1c-0.1-0.8-0.6-1.5-1.2-1.9c0-0.2,0.1-0.5,0.1-0.7c0.6-2.8,1.4-5.6,2.6-8.2
		c1,0.1,1.9,0.1,2.9,0.1c0.8,0,1.7,0,2.5-0.1C67.1,51.1,68.3,53.8,69.2,56.5z M60.5,47.9c0.6-1.3,1.3-2.6,2-3.9c0,0,0,0,0,0
		c1,1.3,1.9,2.6,2.7,4C63.6,48,62,48,60.5,47.9z M59.2,47.8c-1.1-0.1-2.1-0.3-2.9-0.4c1.7-1.8,3.1-2.9,3.6-3.3
		c0.4-0.1,0.9-0.1,1.4-0.2C60.4,45.1,59.7,46.4,59.2,47.8z M55.5,47.2c-0.9-0.2-1.7-0.4-2.2-0.5c1.6-1,3.3-1.7,5.1-2.3
		C57.6,45.1,56.6,46,55.5,47.2z M58.9,48.4c-1.1,2.6-1.9,5.3-2.4,8c0,0.2-0.1,0.4-0.1,0.7c0,0-0.1,0-0.1,0c-1.1,0-2,0.7-2.4,1.6
		c-1.3-0.2-2.7-0.5-4.1-0.8c1.4-4.2,3.9-7.6,6.1-10C56.8,48.1,57.8,48.3,58.9,48.4z M71.3,75.3c0.6-2.3,0.9-4.5,1-6.6
		c0.5-0.1,1-0.1,1.5-0.2c1.8-0.3,3.5-0.6,5.3-1.1c-0.2,2.5-1,5-2.3,7.4c-1.7,0.5-3.4,1-5,1.3C71.7,75.8,71.5,75.5,71.3,75.3z
		 M70.9,47c-1.4-1.4-2.5-2.4-3.3-3.1c2.1,0.4,4.1,1.1,6,2.1C72.8,46.5,71.9,46.8,70.9,47z M66.5,43.8c0,0,0,0.1,0.1,0.1
		c0,0,1.6,1.2,3.7,3.3c-1.2,0.3-2.3,0.5-3.5,0.6c-0.8-1.5-1.8-2.9-2.8-4.2C64.8,43.6,65.6,43.7,66.5,43.8z M52.5,47.1
		c0.8,0.2,1.6,0.5,2.5,0.6c-2.2,2.5-4.6,5.9-6,10c-1.3-0.3-2.7-0.6-4.1-1C46.4,52.8,49,49.5,52.5,47.1z M48.8,58.5
		c-0.5,1.5-0.8,3.1-0.9,4.7c-0.1,0.8-0.1,1.7,0,2.5c-1.4-0.4-2.8-0.8-4.2-1.3c0-0.2,0-0.3,0-0.4c0-2.3,0.4-4.5,1.1-6.6
		C46,57.8,47.4,58.2,48.8,58.5z M47.9,67.1c0.3,2.5,1,4.9,2.2,7.4c-0.1,0.1-0.3,0.3-0.3,0.4c-1.8-0.5-3.1-1-3.8-1.3
		c-1.3-2.3-2.1-5-2.3-7.8C45.1,66.3,46.5,66.8,47.9,67.1z M70.1,78.8c1,0,1.9-0.9,1.9-2c0-0.1,0-0.1,0-0.2c1.5-0.3,2.9-0.6,4.4-1.1
		c-1.6,2.8-4,5.5-7,8.1c-0.7,0.2-1.3,0.3-2,0.4C68.4,82.3,69.4,80.6,70.1,78.8z M82.5,72.5c-1.6,0.8-3.2,1.5-4.8,2
		c1.2-2.4,1.9-4.8,2.1-7.3c1.5-0.5,3-1,4.5-1.7C84.1,67.9,83.5,70.3,82.5,72.5z M79.8,65.7c0-0.2,0-0.4,0-0.7
		c-0.1-2.2-0.5-4.2-1.2-6.2c0.3-0.2,0.5-0.4,0.6-0.7c1.8-0.6,3.1-1.1,3.8-1.5c0.9,2.3,1.4,4.8,1.4,7.4C83.6,64.3,82,65,79.8,65.7z"
		/>
	<path class="st0" d="M64.1,38.6c1.5,0,2.8-1,3.1-2.4c14.1,0.6,25.4,12.3,25.5,26.6h1.9c0-15.4-12.2-27.9-27.4-28.4
		c-0.4-1.3-1.6-2.2-3-2.2c-1.8,0-3.2,1.5-3.2,3.2C60.8,37.1,62.3,38.6,64.1,38.6z M64.1,33.8c0.9,0,1.5,0.7,1.5,1.5
		s-0.7,1.5-1.5,1.5s-1.5-0.7-1.5-1.5S63.2,33.8,64.1,33.8z"/>
	<rect x="91.1" y="64.1" class="st0" width="4.7" height="4.7"/>
	<path class="st0" d="M63.3,90.7c-1.5,0-2.8,1-3.1,2.4C46,92.5,34.7,80.9,34.7,66.6h-1.9C32.9,81.9,45,94.4,60.2,95
		c0.4,1.3,1.6,2.2,3.1,2.2c1.8,0,3.2-1.5,3.2-3.2S65.1,90.7,63.3,90.7z M63.3,95.5c-0.9,0-1.5-0.7-1.5-1.5s0.7-1.5,1.5-1.5
		s1.5,0.7,1.5,1.5S64.2,95.5,63.3,95.5z"/>
	<rect x="31.6" y="60.5" class="st0" width="4.7" height="4.7"/>
</g>
</svg>
