<?xml version="1.0" encoding="UTF-8"?>
<svg id="industrial" xmlns="http://www.w3.org/2000/svg" version="1.1" viewBox="0 0 128 128">
  <!-- Generator: Adobe Illustrator 29.8.2, SVG Export Plug-In . SVG Version: 2.1.1 Build 3)  -->
  <defs>
    <style>
      .st0 {
        fill: #231815;
      }
    </style>
  </defs>
  <path class="st0" d="M114.5,73.8c-3.8-4.6-9.6-4.6-15.6,0l-16.4,11.9c-1.9-1.7-4.9-2.6-8.7-2.6h-9.1c-12.7-9.1-26.5-6.6-37.3,6.7l-3.5-3.5c-.3-.3-.8-.6-1.2-.5-.5,0-.9.2-1.2.5l-9.1,9.3c-.7.7-.7,1.8,0,2.5l26.4,26.4c.3.3.8.5,1.2.5h0c.5,0,.9-.2,1.2-.5l9.1-9.3c.7-.7.7-1.8,0-2.5l-3.7-3.7h32c3.4,0,5.6-.8,7.3-2.5l27.6-25.9c2.3-2,2.7-4.7.9-6.8ZM40,120.8l-24-23.9,6.7-6.8,17.9,17.8c.2.5.6.9,1,1l5.1,5-6.7,6.8ZM111.3,78l-27.7,26c-.8.8-1.9,1.5-4.9,1.5h-35.5l-13.2-13.2c9.8-12.3,21.8-14.5,33.2-6.1.3.2.7.3,1,.3h9.7c6.7,0,7.7,3,7.7,4.9,0,.7-.5,1.2-1.1,1.3h-21.8c-1,0-1.8.8-1.8,1.8s.8,1.8,1.8,1.8h21.9c2.6-.1,4.5-2.2,4.5-4.8,0-1.1-.2-2-.5-2.9l16.5-12c2.6-1.9,7.4-4.6,10.8-.5.3.4.7.9-.5,2Z"/>
  <path class="st0" d="M42.6,72.6c.3.3.7.4,1.1.4s1-.2,1.4-.7l4-5c.3-.3.4-.8.4-1.2l-.3-4c0-.8-.7-1.5-1.5-1.6-.6,0-3.8-.5-4.9-.5s-1.2.3-1.5.8l-3.5,5.5c-.5.8-.3,1.9.5,2.4.8.5,1.9.3,2.4-.5l2.9-4.6c.6,0,1.4.1,2.1.2l.2,1.9-3.6,4.5c-.6.8-.5,1.9.3,2.5Z"/>
  <path class="st0" d="M84.3,35.4l5-11c.3-.6.2-1.3-.2-1.8-.4-.5-1-.8-1.7-.7l-5.2.9-4.4-3.5c-.4-.3-1-.5-1.5-.3-.5.1-1,.5-1.2,1l-4.5,10.5c-.2.5-.2,1.1,0,1.5l4.6,8.1-8.6,9.8-8.3,4.5-7.5,2.6c-.7.3-1.2,1-1.2,1.7,0,.8.6,1.4,1.3,1.6.4,0,9.5,2.4,12.2,2.7,1.5.2,3.7,1.8,4.7,2.8.3.3.8.5,1.2.5s.5,0,.7-.1c.7-.3,1.1-.9,1.1-1.6,0-1.2.1-2.5.2-3.3,1.4,0,3.5-.3,3.8-.3.6,0,1.1-.4,1.4-1l3.7-7.3c.1-.3.2-.6.2-.9l-1-11.6c0,0,0-.2,0-.3,0,0,0,0,0-.1l-1.3-4.4,4.6.9c.8.2,1.6-.3,1.9-1ZM73.5,57.7c-1.4.1-3,.2-3.5.2-1.4,0-2.2,1-2.5,3.3-1.1-.7-2.5-1.4-3.9-1.6-1.1-.1-3.6-.7-6-1.2l2-.7c0,0,.2,0,.3-.1l8.7-4.7c.2,0,.3-.2.5-.4l7-7.9.6,7.1-3,6ZM75.5,31.5c-.1,0-.2,0-.3,0-.3,0-.5,0-.8.2l-.3-.5,3.3-7.6,3.2,2.6c.4.3.9.4,1.4.4l2.8-.5-3.1,6.7-6.1-1.2Z"/>
  <path class="st0" d="M30,59.8c1.5,6.1,4.4,11.8,8.5,16.8.3.4.8.6,1.3.6s.8-.1,1.1-.4c.7-.6.8-1.7.2-2.5-3.6-4.3-6.1-9.2-7.6-14.5l3.2-2.8c.2-.1.3-.3.4-.5l2.5-4.5c.1-.3.2-.6.2-.9v-7.5c0-.2,0-.4,0-.6l-3.5-10c0,0,0-.1,0-.2,1.8-3.7,4.2-7,7.1-10l8.6,3.8c.2.1.5.2.7.2s.3,0,.4,0l8.5-2c.2,0,.5-.2.7-.3l8.5-6.5c.2-.1.3-.3.4-.5l3.4-5.8c9.6,1,18.8,5.6,25.4,13.5,9.4,11.2,11.5,27.1,5.4,40.4-.4.9,0,1.9.9,2.3.9.4,1.9,0,2.3-.9,6.6-14.5,4.3-31.8-5.9-44.1-14.7-17.7-41.1-20.1-58.8-5.3-8.6,7.1-13.8,17.2-14.8,28.3-.4,4.5,0,9.1.9,13.4,0,.1,0,.2,0,.4ZM70.6,11.6l-2.3,3.9-7.9,6.1-7.6,1.8-6.7-3c7.2-5.9,15.8-8.8,24.5-8.8ZM32.5,46.4c.3-2.9.9-5.8,1.8-8.5l2.2,6.2v6.7l-2.1,3.8-1.5,1.3c-.5-3.1-.6-6.3-.3-9.5Z"/>
  <path class="st0" d="M53.7,64.1c-.8,0-1.6.6-1.7,1.4l-1,5.7c-.1.6,0,1.2.5,1.6s1,.6,1.6.5l4.2-.9,3.8,1.5c.2,0,.4.1.6.1s.6,0,.9-.2c.5-.3.8-.7.9-1.2l1-6c0-.5,0-1-.4-1.4-.3-.4-.8-.6-1.3-.6-.3,0-7.4-.3-9.1-.3ZM60.3,69.8l-2.3-.9c-.2,0-.4-.1-.6-.1s-.2,0-.4,0l-2.1.5.3-1.6c1.6,0,3.9.1,5.5.2l-.3,1.9Z"/>
</svg>