<svg xmlns="http://www.w3.org/2000/svg" xmlns:xlink="http://www.w3.org/1999/xlink" viewBox="0 0 128 128"><defs><linearGradient id="a" x1="56.18" y1="11.39" x2="68.86" y2="97.41" gradientUnits="userSpaceOnUse"><stop offset="0" stop-color="#3d4451"/><stop offset="1" stop-color="#3d4451"/></linearGradient><linearGradient id="b" x1="52.76" y1="11.89" x2="65.44" y2="97.91" xlink:href="#a"/><linearGradient id="c" x1="47.69" y1="12.64" x2="60.37" y2="98.66" xlink:href="#a"/><linearGradient id="d" x1="59.47" y1="10.9" x2="72.15" y2="96.92" xlink:href="#a"/><linearGradient id="e" x1="64.94" y1="10.1" x2="77.62" y2="96.12" xlink:href="#a"/><linearGradient id="f" x1="56.24" y1="11.38" x2="68.92" y2="97.4" xlink:href="#a"/><linearGradient id="g" x1="58.21" y1="11.09" x2="70.89" y2="97.11" xlink:href="#a"/><linearGradient id="h" x1="56.94" y1="11.27" x2="69.62" y2="97.3" xlink:href="#a"/><linearGradient id="i" x1="55.15" y1="11.54" x2="67.83" y2="97.56" xlink:href="#a"/><linearGradient id="j" x1="55.83" y1="9.02" x2="69.08" y2="98.91" xlink:href="#a"/><linearGradient id="k" x1="60.45" y1="10.76" x2="73.13" y2="96.78" xlink:href="#a"/><linearGradient id="l" x1="84.72" y1="7.18" x2="97.4" y2="93.2" xlink:href="#a"/><linearGradient id="m" x1="84.72" y1="7.18" x2="97.4" y2="93.2" xlink:href="#a"/><linearGradient id="n" x1="74.45" y1="8.69" x2="87.13" y2="94.72" xlink:href="#a"/><linearGradient id="o" x1="51.24" y1="12.11" x2="63.92" y2="98.14" xlink:href="#a"/><linearGradient id="p" x1="26.97" y1="15.69" x2="39.65" y2="101.71" gradientTransform="rotate(-180 33.915 62.795)" xlink:href="#a"/><linearGradient id="q" x1="26.97" y1="15.69" x2="39.65" y2="101.71" xlink:href="#a"/><linearGradient id="r" x1="37.24" y1="14.18" x2="49.92" y2="100.2" xlink:href="#a"/><linearGradient id="s" x1="49.22" y1="12.41" x2="61.9" y2="98.44" xlink:href="#a"/><linearGradient id="t" x1="70.77" y1="9.24" x2="83.45" y2="95.26" xlink:href="#a"/><linearGradient id="u" x1="41.78" y1="13.51" x2="54.46" y2="99.53" xlink:href="#a"/><linearGradient id="v" x1="60.28" y1="10.78" x2="72.96" y2="96.81" xlink:href="#a"/><radialGradient id="w" cx="63.93" cy="64" r="64" gradientUnits="userSpaceOnUse"><stop offset="0" stop-color="#fff"/><stop offset="1" stop-color="#96aabd"/></radialGradient></defs><path d="M63.93 4a60 60 0 1 1-60 60 60.07 60.07 0 0 1 60-60m0-4a64 64 0 1 0 64 64 64 64 0 0 0-64-64z" fill="#96aabd"/><path d="M63.93 85.71A21.71 21.71 0 1 1 85.65 64a21.74 21.74 0 0 1-21.72 21.71zm0-42.1A20.39 20.39 0 1 0 84.33 64a20.42 20.42 0 0 0-20.4-20.39z" fill="url(#a)"/><path d="M62.77 85.39a.66.66 0 0 1-.54-.28 36.25 36.25 0 0 1-5.79-28.65 41.78 41.78 0 0 1 5-13.17.66.66 0 0 1 1.11.71 41.28 41.28 0 0 0-4.86 12.77 35 35 0 0 0 5.59 27.58.66.66 0 0 1-.54 1z" fill="url(#b)"/><path d="M57.51 84.4a.33.33 0 0 1-.23-.1c-6.81-6.81-10-13.91-9.43-21.11.9-11.76 11.61-19.74 11.72-19.82a.33.33 0 0 1 .39.53c-.12.1-10.59 7.9-11.46 19.35-.53 7 2.58 13.93 9.24 20.59a.33.33 0 0 1-.23.56z" fill="url(#c)"/><path d="M66.07 85.39a.66.66 0 0 1-.54-1c5.87-8.27 7.11-17.65 3.7-27.89a44.75 44.75 0 0 0-7-13.05.66.66 0 0 1 1-.84A45.21 45.21 0 0 1 70.46 56c2.46 7.34 3.78 18.35-3.86 29.11a.66.66 0 0 1-.53.28z" fill="url(#d)"/><path d="M69.26 84.44a.33.33 0 0 1-.21-.58C76 78 79.38 71.74 79.18 65.1c-.37-12-12.51-21.1-12.63-21.19a.33.33 0 1 1 .39-.53c.13.09 12.52 9.39 12.9 21.7.21 6.85-3.28 13.34-10.36 19.29a.33.33 0 0 1-.22.07z" fill="url(#e)"/><path d="M64.49 69.28a68.46 68.46 0 0 1-21.68-3.66.66.66 0 1 1 .42-1.25c25.07 8.35 41.45-.52 41.61-.61a.66.66 0 0 1 .64 1.15 38.84 38.84 0 0 1-11.65 3.61 56.31 56.31 0 0 1-9.34.76z" fill="url(#f)"/><path d="M63.15 48.69A38.69 38.69 0 0 1 51.95 47a.33.33 0 0 1 .21-.62c.12 0 12.34 4.13 22.44-.75a.33.33 0 0 1 .29.59 27 27 0 0 1-11.74 2.47z" fill="url(#g)"/><path d="M64.18 60.26a73.85 73.85 0 0 1-20.51-3.1.33.33 0 1 1 .18-.63c25.34 7.32 39.27-.71 39.4-.79a.33.33 0 0 1 .34.57c-.09.05-6.84 3.95-19.41 3.95z" fill="url(#h)"/><path d="M63.19 77.53A47 47 0 0 1 45.11 74a.33.33 0 1 1 .28-.6c.18.09 18.43 8.44 37.66-1.22a.33.33 0 0 1 .3.59 44.57 44.57 0 0 1-20.16 4.76z" fill="url(#i)"/><path d="M63.93 86.68A22.68 22.68 0 1 1 86.63 64a22.72 22.72 0 0 1-22.7 22.68zm0-44A21.31 21.31 0 1 0 85.25 64a21.34 21.34 0 0 0-21.32-21.31z" fill="url(#j)"/><path d="M64.07 38.57a3.24 3.24 0 1 1 3.24-3.24 3.24 3.24 0 0 1-3.24 3.24zm0-4.78a1.54 1.54 0 1 0 1.54 1.54 1.54 1.54 0 0 0-1.54-1.54z" fill="url(#k)"/><path fill="url(#l)" d="M91.25 64.27h4.42v4.42h-4.42z"/><path d="M95.8 68.82h-4.68v-4.68h4.68zm-4.42-.26h4.16V64.4h-4.16z" fill="url(#m)"/><path d="M94.53 62.69h-1.88a26.62 26.62 0 0 0-26.6-26.58v-1.88a28.5 28.5 0 0 1 28.48 28.46z" fill="url(#n)"/><path d="M63.3 97.18a3.24 3.24 0 1 1 3.24-3.24 3.24 3.24 0 0 1-3.24 3.24zm0-4.78a1.54 1.54 0 1 0 1.54 1.54 1.54 1.54 0 0 0-1.54-1.54z" fill="url(#o)"/><path transform="rotate(180 33.915 62.795)" fill="url(#p)" d="M31.7 60.59h4.42v4.42H31.7z"/><path d="M36.26 65.14h-4.68v-4.68h4.68zm-4.42-.26H36v-4.16h-4.17z" fill="url(#q)"/><path d="M61.32 95a28.5 28.5 0 0 1-28.48-28.41h1.88a26.62 26.62 0 0 0 26.6 26.58z" fill="url(#r)"/><circle cx="56.19" cy="59.73" r="2.63" fill="url(#s)"/><circle cx="77.92" cy="57.75" r="1.32" fill="url(#t)"/><circle cx="50.92" cy="75.52" r="1.32" fill="url(#u)"/><circle cx="70.02" cy="76.84" r="1.97" fill="url(#v)"/><circle cx="63.93" cy="64" r="64" fill="url(#w)" opacity=".5"/></svg>