<svg id="industrial" xmlns="http://www.w3.org/2000/svg" viewBox="0 0 128 128"><defs><style>.cls-1{fill:#96aabd}.cls-2{fill:none;stroke:#3d4451;stroke-linecap:round;stroke-miterlimit:10;stroke-width:2.16px}</style></defs><path class="cls-1" d="M63.93 4a60 60 0 1 1-60 60 60.07 60.07 0 0 1 60-60m0-4a64 64 0 1 0 64 64 64 64 0 0 0-64-64z"/><path class="cls-2" d="M38.85 68.37V52.36h50.17v16.01M48.61 33.74h5.47l.5 18.56h-6.47l.5-18.56zm12.96 0h5.47l.5 18.56h-6.46l.49-18.56zm12.96 0H80l.5 18.56h-6.46l.49-18.56z"/><path d="M52.12 59.18a1 1 0 0 1 .95.95v2.59h-2.93v-2.59a1 1 0 0 1 .95-.95h1m0-1.08h-1a2 2 0 0 0-2 2v3.7h5.09v-3.67a2 2 0 0 0-2-2zm12 1.08a1 1 0 0 1 .95.95v2.59H62.1v-2.59a1 1 0 0 1 .95-.95h1m0-1.08h-1a2 2 0 0 0-2 2v3.7h5.09v-3.67a2 2 0 0 0-2-2zm12.18 1.08a1 1 0 0 1 .95.95v2.59h-2.93v-2.59a1 1 0 0 1 .95-.95h1m0-1.08h-1a2 2 0 0 0-2 2v3.7h5.09v-3.67a2 2 0 0 0-2-2zM44.56 76.68A1.44 1.44 0 0 1 46 78.12v3.49h-4.17v-3.49a1.44 1.44 0 0 1 1.44-1.44h1.29m0-1.08h-1.28a2.52 2.52 0 0 0-2.52 2.52v4.57h6.33v-4.57a2.52 2.52 0 0 0-2.52-2.52zM58 76.68a1.44 1.44 0 0 1 1.44 1.44v3.49h-4.2v-3.49a1.44 1.44 0 0 1 1.44-1.44H58m0-1.08h-1.32a2.52 2.52 0 0 0-2.52 2.52v4.57h6.33v-4.57A2.52 2.52 0 0 0 58 75.6zm13.6 1.08a1.44 1.44 0 0 1 1.4 1.44v3.49h-4.13v-3.49a1.44 1.44 0 0 1 1.44-1.44h1.29m0-1.08h-1.29a2.52 2.52 0 0 0-2.52 2.52v4.57h6.33v-4.57a2.52 2.52 0 0 0-2.52-2.52zm13.22 1.08a1.44 1.44 0 0 1 1.44 1.44v3.49h-4.17v-3.49a1.44 1.44 0 0 1 1.44-1.44h1.29m0-1.08h-1.29A2.52 2.52 0 0 0 81 78.12v4.57h6.33v-4.57a2.52 2.52 0 0 0-2.52-2.52z" fill="#3d4451"/><path class="cls-2" d="M31.63 84.98V68.42h66.9v16.56"/><circle class="cls-1" cx="63.93" cy="64" r="64" opacity=".75"/></svg>