<svg id="レイヤー_1" data-name="レイヤー 1" xmlns="http://www.w3.org/2000/svg" viewBox="0 0 258 156"><defs><style>.cls-1{fill:#fff}</style></defs><path class="cls-1" d="M187.62 121.18l-3.82.16c.11-.23.19-.4.24-.53a2.59 2.59 0 0 0 .14-1.92q-.31-.79-1.57-.79a5 5 0 0 0-3.87 2.26 17.8 17.8 0 0 0-2.67 4.42 2.7 2.7 0 0 0-.18 2.34 1.79 1.79 0 0 0 1.65.74q2.42 0 4.43-2.76l3.18.54q-3.93 5.11-9 5.11-3.17 0-4.08-1.9a5.56 5.56 0 0 1 .16-4.58 15.8 15.8 0 0 1 4.7-6.29 10.62 10.62 0 0 1 6.88-2.72 4.62 4.62 0 0 1 3.79 1.44q1.13 1.46.02 4.48zm2.96 9.47q-3.12 0-4.25-1.76t.12-4.66a15.73 15.73 0 0 1 4.93-6.15 11.48 11.48 0 0 1 7.14-2.65q3.21 0 4.32 1.78t-.16 4.72a15.42 15.42 0 0 1-4.91 6.13 11.6 11.6 0 0 1-7.19 2.59zm1.24-2.72a5.56 5.56 0 0 0 4.19-2.19 16.66 16.66 0 0 0 2.84-4.28q1.43-3.3-1.51-3.3a5.6 5.6 0 0 0-4 2.06 15.51 15.51 0 0 0-3 4.51q-1.45 3.2 1.48 3.2zm10.39 2.19h-2.95l1.55-2.91h2.95l-1.55 2.91zm51.36 0h-2.95l1.56-2.91h2.95l-1.56 2.91zm-43.05-2.78l-1.41 2.39-3.56 3h-1.14l2.97-2.71h-1.42l1.57-2.68h2.99zm13.54-11.99l-6.53 11.99h5.95l-1.52 2.81h-9.44l8.05-14.8h3.49zm17.66 2.9h-3.97l-6.78 12.05h-3.63l6.78-12.05h-3.96l1.59-2.83h11.57l-1.6 2.83zm-5.16 12.07l8.39-14.89h4.65a6.54 6.54 0 0 1 3.53.72 3.39 3.39 0 0 1 1.37 2.32 7 7 0 0 1-.53 3.75 13.34 13.34 0 0 1-2.22 3.75 13 13 0 0 1-3.14 2.79 9.35 9.35 0 0 1-3.09 1.32 18.38 18.38 0 0 1-3.45.27zm5-2.65h1.89a5.75 5.75 0 0 0 4.49-1.81 12.44 12.44 0 0 0 2.43-3.87q1.52-3.94-1.79-3.94h-1.61z"/><path fill="#8d8d8d" d="M60.88 25.48L28.9 81.07l84.44-38.66-3.34-2.93 6.27-4.18-3.97-2.3h47.23l4.18-7.31-102.83-.21z"/><path class="cls-1" d="M24.3 88.39l40.97-19.44 23.62 20.69-9.41 6.48 5.65 2.09-6.27 3.56h40.75l-3.97 7.94H12.6l11.7-21.32zm55.6-26.13l-10.24 5.02L73 70.62h65.21l4.18-8.15-62.49-.21zm-58.33 53.51l-8.06 14.39h-2.84l-.43-10.4q-.44 1-2.61 4.91l-3.08 5.48H1.7l8.06-14.39h3.84l.29 8.77q.2-.43 2.29-4.22l2.55-4.55zm5.84-.3l-8.12 14.69h-3.52l8.12-14.69h3.52zm14.3.09l-8.43 14.75h-3.5l3.53-6.18h-5.13l-3.52 6.18h-3.49l8.42-14.75h3.49l-3.3 5.77h5.13l3.3-5.77h3.5zm.48 14.97q-3.1 0-4.23-1.77t.12-4.69a15.79 15.79 0 0 1 4.91-6.2 11.34 11.34 0 0 1 7.11-2.67q3.19 0 4.3 1.8t-.16 4.76a15.51 15.51 0 0 1-4.89 6.18 11.46 11.46 0 0 1-7.16 2.59zm1.23-2.74a5.52 5.52 0 0 0 4.17-2.2 16.74 16.74 0 0 0 2.83-4.32q1.43-3.32-1.5-3.33a5.56 5.56 0 0 0-4 2.07 15.7 15.7 0 0 0-3 4.55q-1.41 3.23 1.5 3.23zm27.85-12.02L63 130.22h-2.9l-.44-10.44q-.45 1-2.67 4.94l-3.15 5.51H51l8.24-14.45h3.93l.3 8.81q.2-.43 2.34-4.24l2.6-4.57zm20.89-.21l-1.6 2.78h-7.4l-1.72 2.99h6.19l-1.51 2.65h-6.2l-1.96 3.42h7.53l-1.6 2.77H72.67l8.38-14.61h11.11zm10.82 2.8h-3.91L92.4 130.2h-3.58l6.68-11.84h-3.9l1.56-2.77h11.39l-1.57 2.77zm13.02 2.55l-3.78.16q.16-.34.24-.53a2.64 2.64 0 0 0 .14-1.93c-.2-.53-.72-.79-1.55-.79a5 5 0 0 0-3.82 2.27 17.84 17.84 0 0 0-2.64 4.44 2.75 2.75 0 0 0-.18 2.35 1.76 1.76 0 0 0 1.63.74q2.38 0 4.37-2.77l3.14.54q-3.87 5.13-8.93 5.13-3.13 0-4-1.9a5.66 5.66 0 0 1 .16-4.59 15.81 15.81 0 0 1 4.64-6.32 10.39 10.39 0 0 1 6.79-2.73 4.52 4.52 0 0 1 3.74 1.45q1.05 1.45.05 4.48zm16.57-5.41l-8.21 14.72h-3.41l3.44-6.16h-4.99l-3.43 6.16h-3.4l8.2-14.72h3.4l-3.22 5.76h5l3.22-5.76h3.4zm5.63-.01l-8.22 14.77h-3.56l8.22-14.77h3.56zm13.8.01l-8.1 14.74H141l-.43-10.66q-.45 1.07-2.63 5l-3.09 5.62H132l8.09-14.74H144l.29 9q.2-.44 2.3-4.33l2.56-4.66zm12.36 6.9l-4.89 8.15h-1.58l.38-2a8.71 8.71 0 0 1-5.49 2.1A4.25 4.25 0 0 1 149 129q-1.15-1.68.1-4.71a15.44 15.44 0 0 1 5-6.48 11.45 11.45 0 0 1 7.07-2.62 4.84 4.84 0 0 1 3.8 1.3 4 4 0 0 1 .62 3.65l-3.85.53q.66-2.7-1.74-2.7a4.8 4.8 0 0 0-2.87 1 10.87 10.87 0 0 0-2.55 2.76 17.29 17.29 0 0 0-1.63 2.88 3.07 3.07 0 0 0-.2 2.28q.36.92 2 .92 2.43 0 4.36-2.65h-3.47l1.62-2.72z"/></svg>